<svg width="33" height="33" viewBox="0 0 33 33" fill="none" xmlns="http://www.w3.org/2000/svg">
<g clip-path="url(#clip0_7_249)">
<path d="M16.5 32.5C25.3366 32.5 32.5 25.3366 32.5 16.5C32.5 7.66344 25.3366 0.5 16.5 0.5C7.66344 0.5 0.5 7.66344 0.5 16.5C0.5 25.3366 7.66344 32.5 16.5 32.5Z" fill="#F0F0F0"/>
<path d="M22.9 8.5H10.1C9.21634 8.5 8.5 9.21634 8.5 10.1V22.9C8.5 23.7837 9.21634 24.5 10.1 24.5H22.9C23.7837 24.5 24.5 23.7837 24.5 22.9V10.1C24.5 9.21634 23.7837 8.5 22.9 8.5Z" fill="#009B43"/>
<path d="M24.0392 16.1608L22.9192 15.0408C22.8293 14.9508 22.7073 14.9001 22.58 14.9H18.1V10.42C18.0999 10.2928 18.0493 10.1707 17.9592 10.0808L16.8392 8.96081C16.7492 8.87092 16.6272 8.82043 16.5 8.82043C16.3728 8.82043 16.2508 8.87092 16.1608 8.96081L15.0408 10.0808C14.9508 10.1707 14.9001 10.2928 14.9 10.42V14.9H10.42C10.2928 14.9001 10.1707 14.9508 10.0808 15.0408L8.96081 16.1608C8.87092 16.2508 8.82043 16.3728 8.82043 16.5C8.82043 16.6272 8.87092 16.7492 8.96081 16.8392L10.0808 17.9592C10.1707 18.0493 10.2928 18.0999 10.42 18.1H14.9V22.58C14.9001 22.7073 14.9508 22.8293 15.0408 22.9192L16.1608 24.0392C16.2508 24.1291 16.3728 24.1796 16.5 24.1796C16.6272 24.1796 16.7492 24.1291 16.8392 24.0392L17.9592 22.9192C18.0493 22.8293 18.0999 22.7073 18.1 22.58V18.1H22.58C22.7073 18.0999 22.8293 18.0493 22.9192 17.9592L24.0392 16.8392C24.1291 16.7492 24.1796 16.6272 24.1796 16.5C24.1796 16.3728 24.1291 16.2508 24.0392 16.1608Z" fill="#FFCF44"/>
<path d="M19.4168 16.2168C19.4541 16.254 19.4836 16.2981 19.5038 16.3467C19.5239 16.3953 19.5343 16.4474 19.5343 16.5C19.5343 16.5526 19.5239 16.6047 19.5038 16.6533C19.4836 16.7019 19.4541 16.7461 19.4168 16.7832L18.1 18.1L16.7832 19.4168C16.7461 19.4541 16.7019 19.4836 16.6533 19.5038C16.6047 19.5239 16.5526 19.5343 16.5 19.5343C16.4474 19.5343 16.3953 19.5239 16.3467 19.5038C16.2981 19.4836 16.254 19.4541 16.2168 19.4168L14.9 18.1L13.5832 16.7832C13.546 16.7461 13.5164 16.7019 13.4962 16.6533C13.4761 16.6047 13.4657 16.5526 13.4657 16.5C13.4657 16.4474 13.4761 16.3953 13.4962 16.3467C13.5164 16.2981 13.546 16.254 13.5832 16.2168L14.9 14.9L16.2168 13.5832C16.254 13.546 16.2981 13.5164 16.3467 13.4962C16.3953 13.4761 16.4474 13.4657 16.5 13.4657C16.5526 13.4657 16.6047 13.4761 16.6533 13.4962C16.7019 13.5164 16.7461 13.546 16.7832 13.5832L18.1 14.9L19.4168 16.2168Z" fill="#009B43"/>
</g>
<defs>
<clipPath id="clip0_7_249">
<rect width="32" height="32" fill="white" transform="translate(0.5 0.5)"/>
</clipPath>
</defs>
</svg>
