<svg width="352" height="70" viewBox="0 0 352 70" fill="none" xmlns="http://www.w3.org/2000/svg">
<mask id="mask0_137_1279" style="mask-type:luminance" maskUnits="userSpaceOnUse" x="0" y="0" width="352" height="70">
<path d="M0 0H352V69.5455H0V0Z" fill="white"/>
</mask>
<g mask="url(#mask0_137_1279)">
<path fill-rule="evenodd" clip-rule="evenodd" d="M61.347 44.9187C60.1424 43.9883 59.3605 42.504 59.3605 40.8204C59.3605 37.9849 61.5371 35.7031 64.2421 35.7031C64.2562 35.4816 64.2632 35.2527 64.2632 35.0164C64.2632 34.0417 64.1787 33.0891 64.0308 32.1587C59.5718 32.2694 55.9794 36.1019 55.9794 40.8204C55.9794 43.5895 57.2262 46.0485 59.1703 47.6435C59.9734 46.8239 60.713 45.9156 61.347 44.9187ZM57.6911 28.9465C59.5084 28.9465 61.1779 28.3262 62.5515 27.285C62.0443 26.1995 61.4526 25.2027 60.7553 24.2722C59.91 24.9811 58.8533 25.402 57.6699 25.402C54.9861 25.402 52.7884 23.1203 52.7884 20.2847C52.7884 19.6423 52.9152 18.9999 53.1476 18.4239C52.091 18.0251 50.9851 17.7372 49.8299 17.5599C49.5763 18.4239 49.4284 19.3322 49.4284 20.2847C49.4284 25.0698 53.1265 28.9465 57.6911 28.9465ZM45.4766 20.2847C45.4766 19.3322 45.3287 18.4239 45.054 17.5599C43.9128 17.7372 42.814 18.0251 41.7574 18.4017C41.9687 18.9999 42.0955 19.6202 42.0955 20.2847C42.0955 23.1203 39.8977 25.402 37.2139 25.402C36.0305 25.402 34.9528 24.959 34.1075 24.2279C33.4101 25.1584 32.7973 26.1774 32.2901 27.2407C33.6848 28.3262 35.3754 28.9465 37.2139 28.9465C41.7785 28.9465 45.4766 25.0698 45.4766 20.2847Z" fill="#E4E6EE"/>
<path fill-rule="evenodd" clip-rule="evenodd" d="M35.6713 47.6656C34.8682 46.8238 34.1286 45.9155 33.4946 44.9408C34.7414 44.0104 35.5445 42.504 35.5445 40.7761C35.5445 37.9627 33.3467 35.6809 30.6629 35.6809C30.6347 35.6809 30.6136 35.6809 30.5995 35.6809C30.5854 35.4594 30.5784 35.2379 30.5784 35.0163C30.5784 34.0416 30.6629 33.0669 30.8108 32.1365C35.2909 32.2251 38.9256 36.0575 38.9256 40.7761C38.9256 43.5895 37.6577 46.0706 35.6713 47.6656ZM55.1552 50.6784C54.162 51.2101 53.1054 51.6531 52.0065 51.9854C51.3725 49.9474 49.534 48.4631 47.3785 48.4631C45.223 48.4631 43.3845 49.9252 42.7506 51.9633C41.6517 51.631 40.5951 51.1879 39.6019 50.6341C40.7641 47.3112 43.8072 44.9187 47.3785 44.9187C50.9499 44.9187 54.0141 47.3333 55.1552 50.6784Z" fill="#E4E6EE"/>
<path d="M37.9113 40.1337C36.432 39.314 36.2841 37.8963 36.2841 36.7C36.4109 36.2348 36.4743 35.7696 36.4743 35.2601C36.4743 32.1808 34.0863 29.6997 31.149 29.6997H5.30421C2.36683 29.6997 1.52588e-05 32.1808 1.52588e-05 35.2601C1.52588e-05 38.3393 2.36683 40.8426 5.30421 40.8426H31.149C32.4803 40.8426 33.706 40.3331 34.6358 39.4691C36.0094 40.754 37.9113 40.1337 37.9113 40.1337Z" fill="#004A8D"/>
<path fill-rule="evenodd" clip-rule="evenodd" d="M6.00157 33.6207C5.93113 33.7241 5.89591 33.8349 5.89591 33.953C5.89591 34.1007 5.93817 34.2262 6.0227 34.3296C6.10723 34.433 6.23402 34.5068 6.40308 34.5512L7.48083 34.9278C7.93165 35.0754 8.26976 35.2896 8.49517 35.5702C8.72058 35.836 8.83329 36.1683 8.83329 36.5671C8.83329 36.9067 8.74172 37.2095 8.55857 37.4753C8.38951 37.7412 8.15706 37.9479 7.86121 38.0956C7.56535 38.2433 7.22019 38.3171 6.82573 38.3171C6.47352 38.3171 6.14245 38.2507 5.83251 38.1178C5.52257 37.9848 5.26194 37.7929 5.05062 37.5418C4.82521 37.2907 4.65615 37.0027 4.54344 36.6778L5.49439 36.2126C5.63528 36.5375 5.83251 36.796 6.0861 36.988C6.3256 37.1652 6.60031 37.2538 6.91025 37.2538C7.06522 37.2538 7.19906 37.2243 7.31177 37.1652C7.42447 37.1209 7.51605 37.0544 7.58649 36.9658C7.65693 36.8624 7.69215 36.7517 7.69215 36.6335C7.69215 36.5006 7.64988 36.3825 7.56535 36.2791C7.48083 36.1905 7.35403 36.1166 7.18497 36.0575L6.0861 35.6809C5.64936 35.5185 5.31829 35.297 5.09288 35.0164C4.86747 34.7358 4.75476 34.4035 4.75476 34.0195C4.75476 33.665 4.83225 33.3549 4.98722 33.0891C5.15628 32.838 5.38169 32.6386 5.66345 32.4909C5.9593 32.3433 6.29742 32.2694 6.6778 32.2694C7.01592 32.2694 7.32586 32.3285 7.60762 32.4466C7.90347 32.5648 8.15001 32.7346 8.34725 32.9561C8.55857 33.1777 8.72058 33.4435 8.83329 33.7537L7.88234 34.1967C7.76963 33.9309 7.60762 33.7167 7.3963 33.5543C7.18497 33.4066 6.94548 33.3327 6.6778 33.3327C6.52283 33.3327 6.38899 33.3549 6.27629 33.3992C6.14949 33.4583 6.05792 33.5321 6.00157 33.6207ZM13.0597 35.1271C13.1443 35.3782 13.1865 35.6514 13.1865 35.9468C13.1865 36.0354 13.1865 36.1166 13.1865 36.1905C13.1724 36.2791 13.1584 36.3529 13.1443 36.412H10.2703C10.2844 36.5154 10.3125 36.6114 10.3548 36.7C10.4253 36.892 10.538 37.0397 10.6929 37.143C10.8479 37.2464 11.0381 37.2981 11.2635 37.2981C11.4607 37.2981 11.6298 37.2538 11.7707 37.1652C11.9116 37.0766 12.0243 36.9584 12.1088 36.8107L12.9963 37.276C12.9259 37.4827 12.7991 37.6673 12.616 37.8298C12.4469 37.9775 12.2497 38.0956 12.0243 38.1842C11.7848 38.2728 11.5241 38.3171 11.2424 38.3171C10.8056 38.3171 10.4253 38.2138 10.1012 38.007C9.79129 37.815 9.54474 37.5418 9.3616 37.1873C9.19254 36.8477 9.10801 36.4711 9.10801 36.0575C9.10801 35.6293 9.19958 35.2453 9.38273 34.9056C9.56588 34.5807 9.81242 34.3222 10.1224 34.1302C10.4323 33.9235 10.7775 33.8201 11.1578 33.8201C11.4819 33.8201 11.7707 33.8792 12.0243 33.9973C12.2778 34.1007 12.4892 34.2484 12.6582 34.4404C12.8273 34.6324 12.9611 34.8613 13.0597 35.1271ZM10.3548 35.3708C10.3266 35.4151 10.3055 35.4742 10.2914 35.548H12.0031C11.989 35.4742 11.975 35.4077 11.9609 35.3487C11.9045 35.1714 11.8059 35.0311 11.665 34.9278C11.5382 34.8244 11.3692 34.7727 11.1578 34.7727C10.9606 34.7727 10.7986 34.8244 10.6718 34.9278C10.5309 35.0311 10.4253 35.1788 10.3548 35.3708ZM19.5896 34.5955C19.7164 34.8465 19.7798 35.1345 19.7798 35.4594V38.2285H18.6598V35.7031C18.6598 35.5406 18.6316 35.4003 18.5753 35.2822C18.5189 35.164 18.4344 35.0681 18.3217 34.9942C18.2231 34.9204 18.0963 34.8834 17.9413 34.8834C17.8004 34.8834 17.6736 34.9204 17.5609 34.9942C17.4623 35.0681 17.3778 35.164 17.3073 35.2822C17.251 35.4003 17.2228 35.5406 17.2228 35.7031V38.2285H16.1028V35.7031C16.1028 35.5406 16.0746 35.4003 16.0183 35.2822C15.9619 35.164 15.8774 35.0681 15.7647 34.9942C15.6661 34.9204 15.5393 34.8834 15.3843 34.8834C15.2434 34.8834 15.1166 34.9204 15.0039 34.9942C14.9053 35.0681 14.8278 35.164 14.7715 35.2822C14.7151 35.4003 14.6869 35.5406 14.6869 35.7031V38.2285H13.5458V33.9309H14.6024V34.4404C14.6869 34.2927 14.7926 34.1672 14.9194 34.0638C15.1589 33.9013 15.4336 33.8201 15.7435 33.8201C16.0957 33.8201 16.3986 33.9161 16.6522 34.1081C16.8072 34.2115 16.9269 34.337 17.0115 34.4847C17.1101 34.3222 17.2369 34.1893 17.3919 34.0859C17.6454 33.9087 17.9342 33.8201 18.2583 33.8201C18.5541 33.8201 18.8218 33.894 19.0613 34.0416C19.2867 34.1746 19.4628 34.3592 19.5896 34.5955ZM23.5625 34.5733C23.7034 34.8096 23.7738 35.0828 23.7738 35.393V38.2285H22.7172V37.8076C22.6749 37.8667 22.6327 37.911 22.5904 37.9405C22.4354 38.0735 22.2734 38.1695 22.1043 38.2285C21.9212 38.2876 21.7169 38.3171 21.4915 38.3171C21.1957 38.3171 20.9421 38.2654 20.7308 38.1621C20.5194 38.0587 20.3504 37.9184 20.2236 37.7412C20.1109 37.5492 20.0545 37.3276 20.0545 37.0766C20.0545 36.8255 20.1109 36.6114 20.2236 36.4341C20.3222 36.2422 20.4842 36.0871 20.7096 35.9689C20.9209 35.836 21.1886 35.7474 21.5126 35.7031L22.6538 35.5037V35.393C22.6538 35.2305 22.5904 35.0902 22.4636 34.9721C22.3368 34.8687 22.1748 34.817 21.9776 34.817C21.7662 34.817 21.5901 34.8761 21.4492 34.9942C21.2943 35.0976 21.1816 35.2453 21.1111 35.4373L20.2024 34.9942C20.287 34.7579 20.4138 34.5512 20.5828 34.3739C20.766 34.1967 20.9773 34.0638 21.2168 33.9752C21.4563 33.8718 21.724 33.8201 22.0198 33.8201C22.372 33.8201 22.6749 33.8866 22.9285 34.0195C23.1962 34.1524 23.4075 34.337 23.5625 34.5733ZM22.6538 36.5006V36.3677L21.724 36.5449C21.5549 36.5744 21.4281 36.6261 21.3436 36.7C21.2591 36.7738 21.2168 36.8846 21.2168 37.0323C21.2168 37.1652 21.2661 37.2686 21.3647 37.3424C21.4633 37.4163 21.5831 37.4532 21.724 37.4532C21.9071 37.4532 22.0691 37.4089 22.21 37.3203C22.3509 37.2316 22.4566 37.1209 22.527 36.988C22.6115 36.8403 22.6538 36.6778 22.6538 36.5006ZM27.8523 34.5955C27.9932 34.8465 28.0636 35.1345 28.0636 35.4594V38.2285H26.9225V35.7031C26.9225 35.5406 26.8943 35.4003 26.838 35.2822C26.7816 35.164 26.6971 35.0681 26.5844 34.9942C26.4717 34.9204 26.3378 34.8834 26.1829 34.8834C26.042 34.8834 25.9082 34.9204 25.7814 34.9942C25.6687 35.0681 25.5841 35.164 25.5278 35.2822C25.4573 35.4003 25.4221 35.5406 25.4221 35.7031V38.2285H24.3021V33.9309H25.3587V34.4625C25.4432 34.2706 25.5771 34.1229 25.7602 34.0195C25.9716 33.8866 26.2181 33.8201 26.4999 33.8201C26.8098 33.8201 27.0845 33.894 27.324 34.0416C27.5494 34.1746 27.7255 34.3592 27.8523 34.5955ZM32.0576 35.393V38.2285H31.001V37.8076C30.9588 37.8667 30.9095 37.911 30.8531 37.9405C30.7122 38.0735 30.5502 38.1695 30.3671 38.2285C30.1839 38.2876 29.9867 38.3171 29.7754 38.3171C29.4795 38.3171 29.2189 38.2654 28.9935 38.1621C28.7821 38.0587 28.6201 37.9184 28.5074 37.7412C28.3947 37.5492 28.3384 37.3276 28.3384 37.0766C28.3384 36.8255 28.3877 36.6114 28.4863 36.4341C28.599 36.2422 28.761 36.0871 28.9723 35.9689C29.1977 35.836 29.4725 35.7474 29.7965 35.7031L30.9165 35.5037V35.393C30.9165 35.2305 30.8601 35.0902 30.7474 34.9721C30.6206 34.8687 30.4516 34.817 30.2403 34.817C30.043 34.817 29.8669 34.8761 29.712 34.9942C29.557 35.0976 29.4443 35.2453 29.3738 35.4373L28.4863 34.9942C28.5567 34.7579 28.6835 34.5512 28.8667 34.3739C29.0357 34.1967 29.2471 34.0638 29.5006 33.9752C29.7401 33.8718 30.0078 33.8201 30.3037 33.8201C30.6418 33.8201 30.9447 33.8866 31.2124 34.0195C31.48 34.1524 31.6843 34.337 31.8252 34.5733C31.9802 34.8096 32.0576 35.0828 32.0576 35.393ZM30.9165 36.5006V36.3677L29.9867 36.5449C29.8317 36.5744 29.712 36.6261 29.6274 36.7C29.5429 36.7738 29.5006 36.8846 29.5006 37.0323C29.5006 37.1652 29.5499 37.2686 29.6486 37.3424C29.7331 37.4163 29.8458 37.4532 29.9867 37.4532C30.1698 37.4532 30.3318 37.4089 30.4727 37.3203C30.6136 37.2316 30.7263 37.1209 30.8108 36.988C30.8813 36.8403 30.9165 36.6778 30.9165 36.5006Z" fill="white"/>
<path d="M44.0608 35.5923C44.3989 35.799 44.7722 35.9763 45.1808 36.1239C45.7725 36.3307 46.4417 36.5227 47.1884 36.6999C47.8082 36.8476 48.2943 36.9879 48.6465 37.1208C48.9987 37.2537 49.2734 37.3867 49.4706 37.5196C49.6538 37.6673 49.7665 37.8149 49.8088 37.9626C49.8651 38.1103 49.8933 38.2875 49.8933 38.4943V38.5386C49.8933 38.7897 49.8228 39.0038 49.682 39.181C51.6684 39.314 52.3869 37.8962 52.6193 36.2569C52.4221 35.9467 52.1756 35.6661 51.8797 35.4151C51.4852 35.0901 50.9992 34.8095 50.4216 34.5732C49.844 34.337 49.1889 34.1302 48.4563 33.953C48.0759 33.8496 47.7378 33.761 47.4419 33.6871C46.7234 34.2188 45.54 35.0163 44.0608 35.5923Z" fill="#1D5EFF"/>
<path d="M42.3279 32.3359V32.3802C42.3279 33.0891 42.4406 33.6798 42.666 34.1524C42.8914 34.6103 43.2225 35.0016 43.6592 35.3265C43.786 35.4151 43.9199 35.5038 44.0608 35.5924C45.54 35.0164 46.7234 34.2189 47.4419 33.6872C47.2447 33.6282 47.0686 33.5765 46.9136 33.5322C46.5332 33.3992 46.2444 33.2737 46.0472 33.1556C45.8359 33.0226 45.702 32.875 45.6457 32.7125C45.5752 32.55 45.54 32.3433 45.54 32.0922V32.0701C45.54 31.7156 45.702 31.4276 46.0261 31.2061C46.2092 31.0584 46.4557 30.955 46.7657 30.896C46.66 30.1206 46.0049 28.8136 44.4623 28.8136C44.2087 28.9465 43.9762 29.1016 43.7649 29.2788C43.3141 29.6333 42.9619 30.0763 42.7083 30.608C42.4547 31.1249 42.3279 31.7009 42.3279 32.3359Z" fill="#F7941D"/>
<path d="M48.7733 28.2377C48.3506 28.149 47.9209 28.1047 47.4842 28.1047C46.7234 28.1047 46.0261 28.2081 45.3921 28.4149C45.054 28.5183 44.744 28.6512 44.4623 28.8136C46.0049 28.8136 46.66 30.1206 46.7657 30.896C46.9629 30.8665 47.1813 30.8517 47.4208 30.8517C47.8575 30.8517 48.2943 30.9181 48.731 31.0511C49.1818 31.184 49.5552 31.3095 49.851 31.4277V28.4813C49.5692 28.4223 49.21 28.341 48.7733 28.2377Z" fill="#F6BE00"/>
<path d="M45.9838 39.5578C45.8429 39.5135 45.7091 39.4618 45.5823 39.4027C44.9483 39.0926 44.3003 38.6717 43.6381 38.14L41.7151 40.3331C42.7999 41.2636 43.9692 41.906 45.223 42.2604C45.0117 41.3079 45.3287 40.3553 45.9838 39.5578Z" fill="#002140"/>
<path d="M52.7884 36.5892C52.7461 36.4858 52.6898 36.3824 52.6193 36.2791C52.3869 37.8962 51.6684 39.314 49.6819 39.1811C49.5974 39.2992 49.4847 39.4026 49.3438 39.4912C48.9775 39.7275 48.4492 39.8457 47.7589 39.8457C47.1109 39.8457 46.5192 39.7497 45.9838 39.5577C45.3287 40.3552 45.0117 41.3077 45.223 42.2603C46.012 42.4819 46.8361 42.5926 47.6955 42.5926C48.4985 42.5926 49.2311 42.4966 49.8933 42.3046C50.5413 42.1126 51.1049 41.8246 51.5839 41.4407C52.0629 41.0715 52.4362 40.621 52.7039 40.0893C52.9715 39.5577 53.1054 38.9374 53.1054 38.2285V38.1842C53.1054 37.5787 52.9997 37.047 52.7884 36.5892Z" fill="#004A8D"/>
<path fill-rule="evenodd" clip-rule="evenodd" d="M5.76912 42.637H6.10723V44.6972H5.79025V44.5421C5.74799 44.5864 5.69163 44.6307 5.62119 44.675C5.53666 44.7193 5.44509 44.7415 5.34647 44.7415C5.20559 44.7415 5.08584 44.7046 4.98722 44.6307C4.87452 44.5569 4.78999 44.4609 4.73364 44.3427C4.6632 44.2246 4.62798 44.0991 4.62798 43.9661C4.62798 43.8184 4.6632 43.6855 4.73364 43.5674C4.78999 43.4492 4.87452 43.3606 4.98722 43.3015C5.08584 43.2277 5.20559 43.1908 5.34647 43.1908C5.44509 43.1908 5.53666 43.2129 5.62119 43.2572C5.67754 43.2868 5.72685 43.3237 5.76912 43.368V42.637ZM5.76912 43.9661C5.76912 43.8775 5.75503 43.7963 5.72685 43.7225C5.68459 43.6634 5.63528 43.6117 5.57893 43.5674C5.52257 43.5378 5.45918 43.5231 5.38874 43.5231C5.30421 43.5231 5.23377 43.5378 5.17741 43.5674C5.12106 43.6117 5.07175 43.6634 5.02949 43.7225C5.00131 43.7963 4.98722 43.8775 4.98722 43.9661C4.98722 44.04 5.00131 44.1138 5.02949 44.1877C5.07175 44.2615 5.12106 44.3132 5.17741 44.3427C5.23377 44.387 5.30421 44.4092 5.38874 44.4092C5.45918 44.4092 5.52257 44.387 5.57893 44.3427C5.63528 44.3132 5.68459 44.2615 5.72685 44.1877C5.75503 44.1138 5.76912 44.04 5.76912 43.9661ZM7.75555 43.5674C7.82599 43.6708 7.86121 43.8037 7.86121 43.9661C7.86121 44.1138 7.82599 44.2394 7.75555 44.3427C7.68511 44.4609 7.59354 44.5569 7.48083 44.6307C7.36812 44.6898 7.24838 44.7193 7.12158 44.7193C6.9807 44.7193 6.85391 44.6898 6.7412 44.6307C6.6285 44.5569 6.53692 44.4609 6.46648 44.3427C6.39604 44.2394 6.36082 44.1138 6.36082 43.9661C6.36082 43.8184 6.39604 43.6855 6.46648 43.5674C6.53692 43.4492 6.6285 43.3532 6.7412 43.2794C6.85391 43.2203 6.9807 43.1908 7.12158 43.1908C7.24838 43.1908 7.36812 43.2203 7.48083 43.2794C7.59354 43.3532 7.68511 43.4492 7.75555 43.5674ZM7.50196 43.9661C7.50196 43.8775 7.48787 43.7963 7.4597 43.7225C7.41743 43.6634 7.36812 43.6117 7.31177 43.5674C7.25542 43.5378 7.19202 43.5231 7.12158 43.5231C7.03705 43.5231 6.96661 43.5378 6.91026 43.5674C6.85391 43.6117 6.8046 43.6634 6.76233 43.7225C6.73416 43.7963 6.72007 43.8775 6.72007 43.9661C6.72007 44.04 6.73416 44.1138 6.76233 44.1877C6.8046 44.2615 6.85391 44.3132 6.91026 44.3427C6.96661 44.387 7.03705 44.4092 7.12158 44.4092C7.19202 44.4092 7.25542 44.387 7.31177 44.3427C7.36812 44.3132 7.41743 44.2615 7.4597 44.1877C7.48787 44.1138 7.50196 44.04 7.50196 43.9661ZM8.98122 43.3237C8.92487 43.4271 8.89669 43.5452 8.89669 43.6781C8.89669 43.8258 8.92487 43.9514 8.98122 44.0547C9.02349 44.1581 9.09393 44.2394 9.19254 44.2984C9.27707 44.3575 9.38273 44.387 9.50953 44.387C9.62223 44.387 9.72789 44.3575 9.82651 44.2984C9.91104 44.2246 9.96739 44.136 9.99557 44.0326L10.3126 44.1877C10.2844 44.291 10.2351 44.3797 10.1646 44.4535C10.0801 44.5421 9.98148 44.6086 9.86877 44.6529C9.77016 44.6972 9.65041 44.7193 9.50953 44.7193C9.36865 44.7193 9.24185 44.6972 9.12915 44.6529C9.01644 44.5938 8.91078 44.52 8.81216 44.4313C8.72763 44.3427 8.66424 44.232 8.62197 44.0991C8.56562 43.9661 8.53744 43.8258 8.53744 43.6781C8.53744 43.5305 8.56562 43.3902 8.62197 43.2572C8.66424 43.1391 8.72763 43.0357 8.81216 42.9471C8.89669 42.8437 9.00235 42.7699 9.12915 42.7256C9.24185 42.6665 9.36865 42.637 9.50953 42.637C9.65041 42.637 9.77016 42.6665 9.86877 42.7256C9.98148 42.7699 10.0801 42.829 10.1646 42.9028C10.2351 42.9914 10.2844 43.08 10.3126 43.1686L9.99557 43.3237C9.96739 43.2203 9.91104 43.1391 9.82651 43.08C9.72789 43.0062 9.62223 42.9693 9.50953 42.9693C9.38273 42.9693 9.27707 42.9988 9.19254 43.0579C9.09393 43.1317 9.02349 43.2203 8.98122 43.3237ZM11.2424 44.7193C11.1015 44.7193 10.9747 44.6898 10.862 44.6307C10.7493 44.5569 10.6577 44.4609 10.5873 44.3427C10.5168 44.2394 10.4816 44.1138 10.4816 43.9661C10.4816 43.8184 10.5168 43.6855 10.5873 43.5674C10.6577 43.4492 10.7493 43.3532 10.862 43.2794C10.9747 43.2203 11.1015 43.1908 11.2424 43.1908C11.3692 43.1908 11.4889 43.2203 11.6016 43.2794C11.7143 43.3532 11.8059 43.4492 11.8763 43.5674C11.9468 43.6708 11.982 43.8037 11.982 43.9661C11.982 44.1138 11.9468 44.2394 11.8763 44.3427C11.8059 44.4609 11.7143 44.5569 11.6016 44.6307C11.4889 44.6898 11.3692 44.7193 11.2424 44.7193ZM11.031 44.3427C11.0874 44.387 11.1578 44.4092 11.2424 44.4092C11.3128 44.4092 11.3762 44.387 11.4326 44.3427C11.4889 44.3132 11.5382 44.2615 11.5805 44.1877C11.6087 44.1138 11.6228 44.04 11.6228 43.9661C11.6228 43.8775 11.6087 43.7963 11.5805 43.7225C11.5382 43.6634 11.4889 43.6117 11.4326 43.5674C11.3762 43.5378 11.3128 43.5231 11.2424 43.5231C11.1578 43.5231 11.0874 43.5378 11.031 43.5674C10.9747 43.6117 10.9254 43.6634 10.8831 43.7225C10.8549 43.7963 10.8409 43.8775 10.8409 43.9661C10.8409 44.04 10.8549 44.1138 10.8831 44.1877C10.9254 44.2615 10.9747 44.3132 11.031 44.3427ZM12.5737 44.6972H12.2356V43.2129H12.5526V43.4123C12.5807 43.3532 12.623 43.3015 12.6794 43.2572C12.7498 43.2129 12.8414 43.1908 12.9541 43.1908C13.0668 43.1908 13.1654 43.2203 13.2499 43.2794C13.3063 43.3237 13.3486 43.3754 13.3767 43.4345C13.419 43.3606 13.4683 43.3089 13.5247 43.2794C13.6092 43.2203 13.7078 43.1908 13.8205 43.1908C13.9191 43.1908 14.0037 43.2129 14.0741 43.2572C14.1586 43.3015 14.222 43.368 14.2643 43.4566C14.3065 43.5452 14.3277 43.6412 14.3277 43.7446V44.6972H13.9896V43.8332C13.9896 43.7594 13.9825 43.7003 13.9684 43.656C13.9403 43.6117 13.905 43.5748 13.8628 43.5452C13.8346 43.5305 13.7923 43.5231 13.736 43.5231C13.6796 43.5231 13.6303 43.5305 13.5881 43.5452C13.5458 43.5748 13.5106 43.6117 13.4824 43.656C13.4683 43.7003 13.4613 43.7594 13.4613 43.8332V44.6972H13.1231V43.8332C13.1231 43.7594 13.1091 43.7003 13.0809 43.656C13.0527 43.6117 13.0245 43.5748 12.9963 43.5452C12.9541 43.5305 12.9048 43.5231 12.8484 43.5231C12.7921 43.5231 12.7428 43.5305 12.7005 43.5452C12.6582 43.5748 12.6301 43.6117 12.616 43.656C12.5878 43.7003 12.5737 43.7594 12.5737 43.8332V44.6972ZM15.9126 43.6338C15.9408 43.7225 15.9549 43.8111 15.9549 43.8997C15.9549 43.9292 15.9549 43.9588 15.9549 43.9883C15.9408 44.0178 15.9337 44.04 15.9337 44.0547H14.9194C14.9194 44.1138 14.9335 44.1581 14.9616 44.1877C14.9898 44.2615 15.0321 44.3206 15.0884 44.3649C15.1448 44.3944 15.2152 44.4092 15.2998 44.4092C15.3702 44.4092 15.4336 44.3944 15.49 44.3649C15.5463 44.3353 15.5886 44.291 15.6167 44.232L15.8915 44.3649C15.8633 44.4387 15.821 44.4978 15.7647 44.5421C15.7083 44.6012 15.6379 44.6455 15.5534 44.675C15.4688 44.7046 15.3843 44.7193 15.2998 44.7193C15.1448 44.7193 15.018 44.6898 14.9194 44.6307C14.8067 44.5569 14.7222 44.4609 14.6658 44.3427C14.5954 44.2246 14.5601 44.0917 14.5601 43.944C14.5601 43.7963 14.5954 43.6708 14.6658 43.5674C14.7222 43.4492 14.7996 43.3532 14.8983 43.2794C15.011 43.2203 15.1307 43.1908 15.2575 43.1908C15.3702 43.1908 15.4688 43.2056 15.5534 43.2351C15.6379 43.2794 15.7083 43.3311 15.7647 43.3902C15.821 43.464 15.8703 43.5452 15.9126 43.6338ZM14.9405 43.7003C14.9405 43.7298 14.9335 43.7594 14.9194 43.7889H15.5956C15.5815 43.7594 15.5745 43.7298 15.5745 43.7003C15.5463 43.6265 15.504 43.5748 15.4477 43.5452C15.4054 43.5009 15.342 43.4788 15.2575 43.4788C15.1871 43.4788 15.1237 43.5009 15.0673 43.5452C15.011 43.5748 14.9687 43.6265 14.9405 43.7003Z" fill="#666D73"/>
<path fill-rule="evenodd" clip-rule="evenodd" d="M15.4266 42.9694H15.0884L15.2575 42.5042H15.7013L15.4266 42.9694ZM16.5466 44.6973H16.2084V43.213H16.5254V43.4346C16.5536 43.3607 16.5959 43.309 16.6522 43.2795C16.7227 43.2352 16.8072 43.213 16.9058 43.213H16.9903V43.5232H16.8635C16.7649 43.5232 16.6874 43.5527 16.6311 43.6118C16.5747 43.6709 16.5466 43.7595 16.5466 43.8776V44.6973ZM18.1315 44.6751C18.047 44.7047 17.9554 44.7194 17.8568 44.7194C17.7159 44.7194 17.5891 44.6899 17.4764 44.6308C17.3637 44.557 17.2721 44.461 17.2017 44.3428C17.1453 44.2247 17.1171 44.0918 17.1171 43.9441C17.1171 43.7964 17.1453 43.6709 17.2017 43.5675C17.2721 43.4493 17.3637 43.3533 17.4764 43.2795C17.5891 43.2204 17.7159 43.1909 17.8568 43.1909C17.9554 43.1909 18.047 43.2057 18.1315 43.2352C18.216 43.2795 18.2865 43.3312 18.3428 43.3903C18.4132 43.4493 18.4626 43.5232 18.4907 43.6118L18.1949 43.7669C18.1667 43.693 18.1244 43.6339 18.0681 43.5896C17.9976 43.5306 17.9272 43.501 17.8568 43.501C17.7722 43.501 17.7018 43.5232 17.6454 43.5675C17.5891 43.6118 17.5468 43.6635 17.5186 43.7226C17.4905 43.7964 17.4764 43.8776 17.4764 43.9662C17.4764 44.0401 17.4905 44.1139 17.5186 44.1878C17.5468 44.2468 17.5891 44.2985 17.6454 44.3428C17.7018 44.3871 17.7722 44.4093 17.8568 44.4093C17.9272 44.4093 17.9976 44.3871 18.0681 44.3428C18.1244 44.2838 18.1667 44.2173 18.1949 44.1435L18.4907 44.2985C18.4626 44.3724 18.4203 44.4462 18.3639 44.5201C18.2935 44.5791 18.216 44.6308 18.1315 44.6751ZM19.0824 44.6973H18.7443V43.213H19.0824V44.6973Z" fill="#666D73"/>
<path fill-rule="evenodd" clip-rule="evenodd" d="M19.0824 43.0579H18.7443V42.6813H19.0824V43.0579ZM20.7308 43.5674C20.8012 43.6708 20.8364 43.8037 20.8364 43.9661C20.8364 44.1138 20.8012 44.2467 20.7308 44.3649C20.6603 44.4683 20.5687 44.5569 20.456 44.6307C20.3433 44.6898 20.2165 44.7193 20.0757 44.7193C19.9489 44.7193 19.8291 44.6898 19.7164 44.6307C19.6037 44.5569 19.5121 44.4683 19.4417 44.3649C19.3712 44.2467 19.336 44.1138 19.336 43.9661C19.336 43.8184 19.3712 43.6855 19.4417 43.5674C19.5121 43.4492 19.6037 43.3532 19.7164 43.2794C19.815 43.2203 19.9348 43.1908 20.0757 43.1908C20.2165 43.1908 20.3433 43.2203 20.456 43.2794C20.5687 43.3532 20.6603 43.4492 20.7308 43.5674ZM20.4772 43.9661C20.4772 43.8775 20.456 43.7963 20.4138 43.7225C20.3856 43.6634 20.3433 43.6117 20.287 43.5674C20.2306 43.5378 20.1602 43.5231 20.0757 43.5231C20.0052 43.5231 19.9418 43.5378 19.8855 43.5674C19.8291 43.6117 19.7798 43.6634 19.7375 43.7225C19.7094 43.7963 19.6953 43.8775 19.6953 43.9661C19.6953 44.04 19.7094 44.1138 19.7375 44.1877C19.7798 44.2615 19.8291 44.3132 19.8855 44.3427C19.9418 44.387 20.0052 44.4092 20.0757 44.4092C20.1602 44.4092 20.2306 44.387 20.287 44.3427C20.3433 44.3132 20.3856 44.2615 20.4138 44.1877C20.456 44.1138 20.4772 44.04 20.4772 43.9661ZM22.4847 44.675C22.4002 44.7046 22.3016 44.7193 22.1889 44.7193C22.0621 44.7193 21.9423 44.6898 21.8296 44.6307C21.731 44.5569 21.6465 44.4609 21.576 44.3427C21.5197 44.2246 21.4915 44.0991 21.4915 43.9661C21.4915 43.8184 21.5197 43.6855 21.576 43.5674C21.6465 43.4492 21.731 43.3606 21.8296 43.3015C21.9423 43.2277 22.0621 43.1908 22.1889 43.1908C22.3016 43.1908 22.4002 43.2129 22.4847 43.2572C22.5411 43.2868 22.5904 43.3237 22.6327 43.368V42.637H22.9708V44.6972H22.6538V44.5421C22.5974 44.5864 22.5411 44.6307 22.4847 44.675ZM22.5693 44.1877C22.6115 44.1286 22.6327 44.0547 22.6327 43.9661C22.6327 43.8775 22.6115 43.7963 22.5693 43.7225C22.5411 43.6634 22.4988 43.6117 22.4425 43.5674C22.3861 43.5378 22.3157 43.5231 22.2311 43.5231C22.1607 43.5231 22.0903 43.5378 22.0198 43.5674C21.9635 43.6117 21.9212 43.6634 21.893 43.7225C21.8508 43.7963 21.8296 43.8775 21.8296 43.9661C21.8296 44.0547 21.8508 44.1286 21.893 44.1877C21.9212 44.2615 21.9635 44.3132 22.0198 44.3427C22.0903 44.387 22.1607 44.4092 22.2311 44.4092C22.3157 44.4092 22.3861 44.387 22.4425 44.3427C22.4988 44.3132 22.5411 44.2615 22.5693 44.1877ZM23.3089 44.3427C23.2525 44.2246 23.2244 44.0991 23.2244 43.9661C23.2244 43.8037 23.2525 43.6708 23.3089 43.5674C23.3793 43.4492 23.4639 43.3532 23.5625 43.2794C23.6752 43.2203 23.7949 43.1908 23.9217 43.1908C24.0344 43.1908 24.133 43.2056 24.2176 43.2351C24.3021 43.2794 24.3725 43.3385 24.4289 43.4123C24.4853 43.4714 24.5275 43.5452 24.5557 43.6338C24.5839 43.7225 24.598 43.8111 24.598 43.8997C24.598 43.9292 24.598 43.9588 24.598 43.9883C24.598 44.0178 24.598 44.04 24.598 44.0547H23.5836C23.5836 44.1138 23.5907 44.1581 23.6047 44.1877C23.6329 44.2615 23.6822 44.3206 23.7527 44.3649C23.809 44.3944 23.8724 44.4092 23.9429 44.4092C24.0274 44.4092 24.0978 44.3944 24.1542 44.3649C24.2105 44.3353 24.2528 44.291 24.281 44.232L24.5557 44.3649C24.5275 44.4387 24.4853 44.5052 24.4289 44.5643C24.3585 44.6086 24.288 44.6455 24.2176 44.675C24.133 44.7046 24.0415 44.7193 23.9429 44.7193C23.802 44.7193 23.6752 44.6898 23.5625 44.6307C23.4639 44.5569 23.3793 44.4609 23.3089 44.3427ZM23.6047 43.7003C23.5907 43.7298 23.5836 43.7594 23.5836 43.7889H24.2387C24.2387 43.7594 24.2317 43.7298 24.2176 43.7003C24.2035 43.6265 24.1683 43.5748 24.1119 43.5452C24.0556 43.5009 23.9922 43.4788 23.9217 43.4788C23.8513 43.4788 23.7879 43.5009 23.7315 43.5452C23.6752 43.5748 23.6329 43.6265 23.6047 43.7003ZM26.6689 44.5421C26.5421 44.6455 26.3731 44.6972 26.1617 44.6972H25.3587V42.6813H26.1617C26.2885 42.6813 26.4012 42.7034 26.4999 42.7477C26.5844 42.792 26.6478 42.8585 26.6901 42.9471C26.7464 43.0209 26.7746 43.1169 26.7746 43.2351C26.7746 43.3385 26.7534 43.4271 26.7112 43.5009C26.683 43.5452 26.6548 43.5821 26.6267 43.6117C26.6548 43.6265 26.683 43.6486 26.7112 43.6781C26.7534 43.7372 26.7887 43.7963 26.8168 43.8554C26.845 43.9292 26.8591 44.0031 26.8591 44.0769C26.8591 44.2689 26.7957 44.424 26.6689 44.5421ZM25.6968 43.4566H26.1829C26.2533 43.4566 26.3097 43.4345 26.3519 43.3902C26.3942 43.3459 26.4153 43.2868 26.4153 43.2129C26.4153 43.1539 26.3942 43.1022 26.3519 43.0579C26.3097 43.0136 26.2533 42.9914 26.1829 42.9914H25.6968V43.4566ZM26.4999 44.0769C26.4999 43.9883 26.4717 43.9144 26.4153 43.8554C26.359 43.8111 26.2885 43.7889 26.204 43.7889H25.6968V44.3649H26.204C26.2885 44.3649 26.359 44.3353 26.4153 44.2763C26.4717 44.232 26.4999 44.1655 26.4999 44.0769ZM28.3806 43.6338C28.4229 43.7225 28.444 43.8111 28.444 43.8997C28.444 43.9292 28.437 43.9588 28.4229 43.9883C28.4229 44.0178 28.4229 44.04 28.4229 44.0547H27.4086C27.4086 44.099 27.4156 44.1434 27.4297 44.1877C27.4719 44.2615 27.5213 44.3206 27.5776 44.3649C27.634 44.3944 27.7044 44.4092 27.7889 44.4092C27.8594 44.4092 27.9228 44.3944 27.9791 44.3649C28.0355 44.3353 28.0777 44.291 28.1059 44.232L28.3806 44.3649C28.3525 44.4387 28.3102 44.4978 28.2538 44.5421C28.1975 44.6012 28.127 44.6455 28.0425 44.675C27.958 44.7046 27.8664 44.7193 27.7678 44.7193C27.6269 44.7193 27.5001 44.6898 27.3874 44.6307C27.2888 44.5569 27.2043 44.4609 27.1338 44.3427C27.0775 44.2246 27.0493 44.0917 27.0493 43.944C27.0493 43.7963 27.0845 43.6708 27.155 43.5674C27.2113 43.4492 27.2888 43.3532 27.3874 43.2794C27.5001 43.2203 27.6199 43.1908 27.7467 43.1908C27.8594 43.1908 27.958 43.2056 28.0425 43.2351C28.127 43.2794 28.1975 43.3311 28.2538 43.3902C28.3102 43.464 28.3525 43.5452 28.3806 43.6338ZM27.4297 43.7003C27.4297 43.7298 27.4226 43.7594 27.4086 43.7889H28.0848C28.0707 43.7594 28.0636 43.7298 28.0636 43.7003C28.0355 43.6265 27.9932 43.5748 27.9369 43.5452C27.8805 43.5009 27.8171 43.4788 27.7467 43.4788C27.6762 43.4788 27.6128 43.4935 27.5565 43.5231C27.5001 43.5674 27.4579 43.6265 27.4297 43.7003ZM29.881 43.4566C29.9233 43.5305 29.9444 43.6265 29.9444 43.7446V44.6972H29.6063V43.8332C29.6063 43.7594 29.5922 43.7003 29.564 43.656C29.5359 43.6117 29.5006 43.5748 29.4584 43.5452C29.4161 43.5157 29.3668 43.5009 29.3105 43.5009C29.2541 43.5009 29.2048 43.5157 29.1625 43.5452C29.1203 43.5748 29.085 43.6117 29.0569 43.656C29.0428 43.7003 29.0357 43.7594 29.0357 43.8332V44.6972H28.6976V43.2129H29.0146V43.3902C29.0428 43.3311 29.085 43.2868 29.1414 43.2572C29.2259 43.2129 29.3175 43.1908 29.4161 43.1908C29.5147 43.1908 29.6063 43.2129 29.6908 43.2572C29.7613 43.3015 29.8247 43.368 29.881 43.4566ZM30.5361 43.6117C30.5361 43.6412 30.5432 43.6708 30.5573 43.7003C30.5713 43.7151 30.5925 43.7298 30.6207 43.7446C30.6488 43.7594 30.677 43.7668 30.7052 43.7668L30.9376 43.8554C31.0503 43.8849 31.1349 43.9366 31.1912 44.0104C31.2617 44.0843 31.2969 44.1729 31.2969 44.2763C31.2969 44.3649 31.2758 44.4461 31.2335 44.52C31.1771 44.579 31.1137 44.6307 31.0433 44.675C30.9588 44.7046 30.8672 44.7193 30.7686 44.7193C30.6136 44.7193 30.4798 44.6824 30.3671 44.6086C30.2544 44.5347 30.1769 44.4313 30.1346 44.2984L30.3882 44.1877C30.4305 44.2615 30.4798 44.3206 30.5361 44.3649C30.6066 44.424 30.684 44.4535 30.7686 44.4535C30.8249 44.4535 30.8742 44.4387 30.9165 44.4092C30.9447 44.3797 30.9588 44.3427 30.9588 44.2984C30.9588 44.2689 30.9517 44.2394 30.9376 44.2098C30.9235 44.195 30.9024 44.1803 30.8742 44.1655C30.8602 44.1507 30.832 44.1434 30.7897 44.1434L30.5784 44.0769C30.4516 44.0326 30.36 43.9735 30.3037 43.8997C30.2332 43.8258 30.198 43.7372 30.198 43.6338C30.198 43.5452 30.2262 43.464 30.2825 43.3902C30.3248 43.3311 30.3812 43.2794 30.4516 43.2351C30.5361 43.2056 30.6277 43.1908 30.7263 43.1908C30.8531 43.1908 30.9729 43.2203 31.0856 43.2794C31.1842 43.3532 31.2546 43.4492 31.2969 43.5674L31.0433 43.7003C31.0151 43.6265 30.9729 43.5748 30.9165 43.5452C30.8601 43.5009 30.7968 43.4788 30.7263 43.4788C30.67 43.4788 30.6277 43.4935 30.5995 43.5231C30.5573 43.5526 30.5361 43.5821 30.5361 43.6117ZM32.0576 44.3206V44.5421C32.0576 44.7046 32.0224 44.8301 31.952 44.9187C31.8956 45.0221 31.797 45.0885 31.6561 45.1181V44.9409C31.7125 44.9261 31.7618 44.8966 31.8041 44.8522C31.8322 44.8079 31.8534 44.7563 31.8675 44.6972H31.7195V44.3206H32.0576ZM5.95931 47.0454C6.02975 47.134 6.06497 47.2448 6.06497 47.3777C6.06497 47.4958 6.03679 47.5992 5.98044 47.6878C5.92409 47.7764 5.8466 47.8503 5.74799 47.9093C5.64937 47.9536 5.53666 47.9758 5.40987 47.9758C5.28308 47.9758 5.16333 47.9536 5.05062 47.9093C4.952 47.865 4.86747 47.7986 4.79703 47.71C4.7125 47.6214 4.65615 47.5254 4.62798 47.422L4.92383 47.2891C4.96609 47.4072 5.02949 47.4958 5.11402 47.5549C5.21263 47.6287 5.31125 47.6657 5.40987 47.6657C5.48031 47.6657 5.53666 47.6509 5.57893 47.6214C5.62119 47.6066 5.65641 47.577 5.68459 47.5327C5.71276 47.5032 5.72685 47.4589 5.72685 47.3998C5.72685 47.3408 5.70572 47.2964 5.66346 47.2669C5.63528 47.2226 5.58597 47.1931 5.51553 47.1783L5.15628 47.0454C5.00131 47.0011 4.88861 46.9272 4.81817 46.8239C4.73364 46.7205 4.69137 46.6097 4.69137 46.4916C4.69137 46.3734 4.71955 46.27 4.7759 46.1814C4.83225 46.0928 4.90974 46.019 5.00836 45.9599C5.10697 45.9156 5.21968 45.8934 5.34647 45.8934C5.45918 45.8934 5.56484 45.9156 5.66346 45.9599C5.76207 46.0042 5.8466 46.0633 5.91704 46.1371C5.98748 46.211 6.03679 46.2996 6.06497 46.4029L5.76912 46.5359C5.74094 46.4325 5.68459 46.3513 5.60006 46.2922C5.52962 46.2479 5.44509 46.2257 5.34647 46.2257C5.29012 46.2257 5.24081 46.2331 5.19855 46.2479C5.14219 46.2626 5.10697 46.2922 5.09289 46.3365C5.06471 46.366 5.05062 46.4103 5.05062 46.4694C5.05062 46.5285 5.06471 46.5728 5.09289 46.6023C5.13515 46.6466 5.1915 46.6835 5.26194 46.7131L5.60006 46.8239C5.75503 46.8829 5.87478 46.9568 5.95931 47.0454Z" fill="#666D73"/>
<path fill-rule="evenodd" clip-rule="evenodd" d="M7.64989 46.8903C7.67806 46.9789 7.69215 47.0675 7.69215 47.1561C7.69215 47.1856 7.69215 47.2152 7.69215 47.2447C7.67806 47.2742 7.67102 47.2964 7.67102 47.3112H6.65667C6.65667 47.3702 6.67076 47.4145 6.69894 47.4441C6.72711 47.5179 6.76938 47.577 6.82573 47.6213C6.88208 47.6508 6.95252 47.6656 7.03705 47.6656C7.10749 47.6656 7.17089 47.6508 7.22724 47.6213C7.2836 47.5918 7.32586 47.5475 7.35404 47.4884L7.62876 47.6213C7.60058 47.6951 7.55832 47.7616 7.50196 47.8207C7.44561 47.865 7.37517 47.9019 7.29064 47.9314C7.20611 47.961 7.12158 47.9757 7.03705 47.9757C6.88208 47.9757 6.75529 47.9462 6.65667 47.8871C6.54397 47.8133 6.45944 47.7173 6.40309 47.5991C6.33264 47.481 6.29742 47.3481 6.29742 47.2004C6.29742 47.0527 6.33264 46.9272 6.40309 46.8238C6.45944 46.7056 6.54397 46.6097 6.65667 46.5358C6.75529 46.4767 6.868 46.4472 6.99479 46.4472C7.10749 46.4472 7.20611 46.462 7.29064 46.4915C7.37517 46.5358 7.44561 46.5949 7.50196 46.6687C7.55832 46.7278 7.60762 46.8016 7.64989 46.8903ZM6.6778 46.9567C6.6778 46.9862 6.67076 47.0158 6.65667 47.0453H7.3329C7.31882 47.0158 7.31177 46.9862 7.31177 46.9567C7.2836 46.8829 7.24133 46.8312 7.18498 46.8016C7.14271 46.7573 7.07932 46.7352 6.99479 46.7352C6.92435 46.7352 6.86095 46.7573 6.8046 46.8016C6.76233 46.8312 6.72007 46.8829 6.6778 46.9567ZM8.6431 46.4693H8.72763V46.7795H8.60084C8.50222 46.7795 8.42474 46.809 8.36839 46.8681C8.31203 46.9272 8.28386 47.0158 8.28386 47.1339V47.9536H7.94574V46.4693H8.26272V46.6909C8.2909 46.617 8.33316 46.5653 8.38952 46.5358C8.45996 46.4915 8.54449 46.4693 8.6431 46.4693ZM9.82651 46.4693H10.1858L9.63632 47.9536H9.34047L8.79103 46.4693H9.15028L9.4884 47.4441L9.82651 46.4693ZM10.376 45.9155H10.7141V46.2921H10.376V45.9155Z" fill="#666D73"/>
<path fill-rule="evenodd" clip-rule="evenodd" d="M10.3759 46.4693H10.7141V47.9536H10.3759V46.4693ZM11.3692 46.9789C11.341 47.0379 11.3269 47.1118 11.3269 47.2004C11.3269 47.289 11.341 47.3702 11.3692 47.4441C11.3973 47.5031 11.4396 47.5548 11.496 47.5991C11.5664 47.6287 11.6368 47.6435 11.7073 47.6435C11.7918 47.6435 11.8622 47.6213 11.9186 47.577C11.975 47.5327 12.0172 47.4736 12.0454 47.3998L12.3412 47.5327C12.3131 47.6213 12.2708 47.6951 12.2145 47.7542C12.144 47.8281 12.0665 47.8797 11.982 47.9093C11.9256 47.9388 11.8693 47.961 11.8129 47.9757L11.7918 48.02C11.8763 48.0348 11.9468 48.0644 12.0031 48.1087C12.0595 48.153 12.0877 48.212 12.0877 48.2859C12.0877 48.3745 12.0524 48.4483 11.982 48.5074C11.9256 48.5517 11.8411 48.5739 11.7284 48.5739C11.6861 48.5739 11.6368 48.5665 11.5805 48.5517C11.5241 48.5369 11.4748 48.5148 11.4326 48.4853L11.5171 48.2859C11.5312 48.3007 11.5594 48.3154 11.6016 48.3302C11.6298 48.345 11.658 48.3523 11.6861 48.3523C11.7284 48.3523 11.7566 48.345 11.7707 48.3302C11.7989 48.3154 11.8129 48.2933 11.8129 48.2637C11.8129 48.2194 11.7918 48.1899 11.7495 48.1751C11.7073 48.1603 11.6439 48.1456 11.5594 48.1308L11.6016 47.9757C11.503 47.961 11.4114 47.9241 11.3269 47.865C11.2142 47.8059 11.1297 47.7173 11.0733 47.5991C11.0029 47.481 10.9676 47.3481 10.9676 47.2004C10.9676 47.0527 11.0029 46.9198 11.0733 46.8016C11.1297 46.6835 11.2142 46.5949 11.3269 46.5358C11.4396 46.462 11.5664 46.425 11.7073 46.425C11.8059 46.425 11.8975 46.4472 11.982 46.4915C12.0665 46.521 12.144 46.5727 12.2145 46.6466C12.2708 46.7056 12.3131 46.7795 12.3412 46.8681L12.0454 47.001C12.0172 46.9272 11.975 46.8681 11.9186 46.8238C11.8482 46.7795 11.7777 46.7573 11.7073 46.7573C11.6368 46.7573 11.5664 46.7795 11.496 46.8238C11.4396 46.8533 11.3973 46.905 11.3692 46.9789ZM13.9262 46.8016C13.9966 46.9198 14.0318 47.0527 14.0318 47.2004C14.0318 47.3481 13.9966 47.481 13.9262 47.5991C13.8557 47.7173 13.7642 47.8059 13.6514 47.865C13.5387 47.9388 13.419 47.9757 13.2922 47.9757C13.1513 47.9757 13.0245 47.9388 12.9118 47.865C12.7991 47.8059 12.7075 47.7173 12.6371 47.5991C12.5667 47.481 12.5314 47.3481 12.5314 47.2004C12.5314 47.0527 12.5667 46.9198 12.6371 46.8016C12.7075 46.6835 12.7991 46.5949 12.9118 46.5358C13.0245 46.462 13.1513 46.425 13.2922 46.425C13.419 46.425 13.5387 46.462 13.6514 46.5358C13.7642 46.5949 13.8557 46.6835 13.9262 46.8016ZM13.6726 47.2004C13.6726 47.1118 13.6585 47.0379 13.6303 46.9789C13.588 46.905 13.5387 46.8533 13.4824 46.8238C13.426 46.7795 13.3626 46.7573 13.2922 46.7573C13.2077 46.7573 13.1372 46.7795 13.0809 46.8238C13.0245 46.8533 12.9752 46.905 12.9329 46.9789C12.9048 47.0379 12.8907 47.1118 12.8907 47.2004C12.8907 47.289 12.9048 47.3702 12.9329 47.4441C12.9752 47.5031 13.0245 47.5548 13.0809 47.5991C13.1372 47.6287 13.2077 47.6435 13.2922 47.6435C13.3626 47.6435 13.426 47.6287 13.4824 47.5991C13.5387 47.5548 13.588 47.5031 13.6303 47.4441C13.6585 47.3702 13.6726 47.289 13.6726 47.2004ZM14.6024 46.8681C14.6024 46.8976 14.6094 46.9198 14.6235 46.9346C14.6376 46.9641 14.6588 46.9862 14.6869 47.001C14.701 47.001 14.7292 47.0084 14.7715 47.0232L14.9828 47.0896C15.1096 47.1339 15.2011 47.193 15.2575 47.2668C15.3138 47.3407 15.342 47.4293 15.342 47.5327C15.342 47.6213 15.3209 47.6951 15.2786 47.7542C15.2364 47.8281 15.173 47.8797 15.0884 47.9093C15.018 47.9536 14.9264 47.9757 14.8137 47.9757C14.6728 47.9757 14.546 47.9388 14.4333 47.865C14.3206 47.7911 14.2431 47.6878 14.2009 47.5548L14.4545 47.4219C14.4826 47.5105 14.532 47.577 14.6024 47.6213C14.6728 47.6656 14.7433 47.6878 14.8137 47.6878C14.8842 47.6878 14.9335 47.673 14.9616 47.6435C15.0039 47.6139 15.025 47.577 15.025 47.5327C15.025 47.5031 15.018 47.481 15.0039 47.4662C14.9898 47.4515 14.9687 47.4367 14.9405 47.4219C14.9123 47.4072 14.8842 47.3924 14.856 47.3776L14.6235 47.3112C14.5108 47.2816 14.4193 47.2299 14.3488 47.1561C14.2925 47.0822 14.2643 46.9936 14.2643 46.8903C14.2643 46.8016 14.2854 46.7204 14.3277 46.6466C14.3699 46.5875 14.4333 46.5358 14.5179 46.4915C14.5883 46.4472 14.6799 46.425 14.7926 46.425C14.9194 46.425 15.0321 46.462 15.1307 46.5358C15.2434 46.5949 15.3209 46.6909 15.3632 46.8238L15.0884 46.9346C15.0744 46.8755 15.0391 46.8238 14.9828 46.7795C14.9264 46.75 14.863 46.7352 14.7926 46.7352C14.7362 46.7352 14.6869 46.7426 14.6447 46.7573C14.6165 46.7869 14.6024 46.8238 14.6024 46.8681ZM17.3496 46.8681C17.3778 46.9567 17.3919 47.0527 17.3919 47.1561C17.3919 47.1856 17.3919 47.2152 17.3919 47.2447C17.3919 47.2595 17.3919 47.2816 17.3919 47.3112H16.3775C16.3775 47.3555 16.3846 47.3998 16.3986 47.4441C16.4268 47.5179 16.4761 47.5696 16.5466 47.5991C16.6029 47.6434 16.6663 47.6656 16.7368 47.6656C16.8213 47.6656 16.8917 47.6508 16.9481 47.6213C17.0044 47.577 17.0467 47.5253 17.0749 47.4662L17.3496 47.6213C17.3214 47.6804 17.2792 47.7394 17.2228 47.7985C17.1524 47.8576 17.0819 47.9019 17.0115 47.9314C16.9269 47.961 16.8354 47.9757 16.7368 47.9757C16.5959 47.9757 16.4691 47.9388 16.3564 47.865C16.2437 47.8059 16.1591 47.7173 16.1028 47.5991C16.0464 47.481 16.0183 47.3481 16.0183 47.2004C16.0183 47.0527 16.0464 46.9198 16.1028 46.8016C16.1732 46.6835 16.2578 46.5949 16.3564 46.5358C16.4691 46.462 16.5888 46.425 16.7156 46.425C16.8283 46.425 16.9269 46.4472 17.0115 46.4915C17.096 46.5358 17.1664 46.5875 17.2228 46.6466C17.2792 46.7204 17.3214 46.7943 17.3496 46.8681ZM16.3986 46.9346C16.3846 46.9641 16.3775 46.9936 16.3775 47.0232H17.0326C17.0326 46.9936 17.0256 46.9641 17.0115 46.9346C16.9974 46.8755 16.9622 46.8238 16.9058 46.7795C16.8495 46.75 16.7861 46.7352 16.7156 46.7352C16.6452 46.7352 16.5818 46.75 16.5254 46.7795C16.4691 46.8238 16.4268 46.8755 16.3986 46.9346ZM17.9836 45.9155H19.336V46.2478H18.85V47.9314H18.4907V46.2478H17.9836V45.9155ZM20.287 46.4693H20.6251V47.9314H20.3081V47.7542C20.2799 47.8133 20.2377 47.865 20.1813 47.9093C20.1109 47.9536 20.0193 47.9757 19.9066 47.9757C19.808 47.9757 19.7164 47.9462 19.6319 47.8871C19.5473 47.8428 19.4839 47.7764 19.4417 47.6878C19.3994 47.5991 19.3783 47.4884 19.3783 47.3555V46.4693H19.7164V47.3333C19.7164 47.3924 19.7305 47.4441 19.7587 47.4884C19.7868 47.5327 19.8221 47.5696 19.8643 47.5991C19.9066 47.6287 19.9559 47.6435 20.0123 47.6435C20.0686 47.6435 20.1179 47.6287 20.1602 47.5991C20.2024 47.5696 20.2377 47.5327 20.2658 47.4884C20.2799 47.4441 20.287 47.3924 20.287 47.3333V46.4693ZM21.6394 46.4472H21.724V46.7573H21.5972C21.5126 46.7573 21.4352 46.7869 21.3647 46.8459C21.3084 46.9198 21.2802 47.0084 21.2802 47.1118V47.9314H20.9421V46.4693H21.2591V46.6687C21.3013 46.5949 21.3436 46.5432 21.3859 46.5137C21.4563 46.4693 21.5408 46.4472 21.6394 46.4472ZM21.9142 45.9155H22.2523V46.2921H21.9142V45.9155Z" fill="#666D73"/>
<path fill-rule="evenodd" clip-rule="evenodd" d="M21.9142 47.9537H22.2523V46.4694H21.9142V47.9537ZM22.9285 46.7796C22.9567 46.75 22.9989 46.7353 23.0553 46.7353C23.1398 46.7353 23.2103 46.7574 23.2666 46.8017C23.323 46.846 23.3582 46.8977 23.3723 46.9568L23.647 46.846C23.5906 46.7131 23.5132 46.6171 23.4145 46.558C23.3159 46.4842 23.2032 46.4473 23.0764 46.4473C22.9637 46.4473 22.8722 46.4694 22.8017 46.5137C22.7172 46.5433 22.6538 46.595 22.6115 46.6688C22.5693 46.7426 22.5481 46.8239 22.5481 46.9125C22.5481 47.0159 22.5763 47.1045 22.6327 47.1783C22.7031 47.2522 22.7947 47.3038 22.9074 47.3334L23.1398 47.3998C23.168 47.4146 23.1962 47.4294 23.2244 47.4441C23.2525 47.4589 23.2737 47.4737 23.2878 47.4884C23.3018 47.5032 23.3089 47.5254 23.3089 47.5549C23.3089 47.5992 23.2878 47.6361 23.2455 47.6657C23.2173 47.6952 23.168 47.71 23.0976 47.71C23.0271 47.71 22.9567 47.6878 22.8862 47.6435C22.8158 47.5992 22.7665 47.5328 22.7383 47.4441L22.4847 47.5771C22.527 47.71 22.6045 47.8134 22.7172 47.8872C22.8299 47.961 22.9567 47.998 23.0976 47.998C23.2103 47.998 23.3018 47.9758 23.3723 47.9315C23.4568 47.902 23.5202 47.8503 23.5625 47.7764C23.6047 47.7026 23.6259 47.6214 23.6259 47.5328C23.6259 47.4294 23.5977 47.3408 23.5413 47.2669C23.4709 47.2078 23.3793 47.1562 23.2666 47.1119L23.0553 47.0454C23.013 47.0306 22.9849 47.0159 22.9708 47.0011C22.9426 47.0011 22.9215 46.9863 22.9074 46.9568C22.8933 46.942 22.8862 46.9199 22.8862 46.8903C22.8862 46.846 22.9003 46.8091 22.9285 46.7796ZM25.7391 46.5137C25.6687 46.4694 25.5841 46.4473 25.4855 46.4473C25.3728 46.4473 25.2742 46.4768 25.1897 46.5359C25.1333 46.5802 25.084 46.6319 25.0417 46.6909C25.0136 46.6319 24.9713 46.5876 24.9149 46.558C24.8304 46.4842 24.7247 46.4473 24.598 46.4473C24.4993 46.4473 24.4078 46.4768 24.3232 46.5359C24.281 46.5654 24.2457 46.6097 24.2176 46.6688V46.4916H23.9006V47.9537H24.2387V47.0897C24.2387 47.0306 24.2457 46.9789 24.2598 46.9346C24.288 46.8903 24.3232 46.8534 24.3655 46.8239C24.4078 46.7943 24.4571 46.7796 24.5134 46.7796C24.5698 46.7796 24.612 46.7943 24.6402 46.8239C24.6825 46.8534 24.7177 46.8903 24.7459 46.9346C24.76 46.9789 24.767 47.0306 24.767 47.0897V47.9537H25.1263V47.0897C25.1263 47.0306 25.1333 46.9789 25.1474 46.9346C25.1756 46.8903 25.2108 46.8534 25.2531 46.8239C25.2953 46.7943 25.3376 46.7796 25.3798 46.7796C25.4362 46.7796 25.4855 46.7943 25.5278 46.8239C25.57 46.8534 25.6053 46.8903 25.6334 46.9346C25.6475 46.9789 25.6546 47.0306 25.6546 47.0897V47.9537H25.9927V47.0232C25.9927 46.9051 25.9715 46.8017 25.9293 46.7131C25.887 46.6393 25.8236 46.5728 25.7391 46.5137ZM27.3451 46.558C27.2324 46.4842 27.1056 46.4473 26.9648 46.4473C26.8239 46.4473 26.7041 46.4842 26.6055 46.558C26.4928 46.6171 26.4012 46.7057 26.3308 46.8239C26.2604 46.942 26.2251 47.0749 26.2251 47.2226C26.2251 47.3703 26.2604 47.5032 26.3308 47.6214C26.4012 47.7395 26.4928 47.8281 26.6055 47.8872C26.7182 47.961 26.838 47.998 26.9648 47.998C27.1056 47.998 27.2324 47.961 27.3451 47.8872C27.4579 47.8281 27.5494 47.7395 27.6199 47.6214C27.6903 47.5032 27.7255 47.3703 27.7255 47.2226C27.7255 47.0749 27.6903 46.942 27.6199 46.8239C27.5494 46.7057 27.4579 46.6171 27.3451 46.558ZM27.3029 47.4441C27.2747 47.518 27.2324 47.5771 27.1761 47.6214C27.1197 47.6509 27.0493 47.6657 26.9648 47.6657C26.8943 47.6657 26.8309 47.6509 26.7746 47.6214C26.7182 47.5771 26.6689 47.518 26.6266 47.4441C26.5985 47.3851 26.5844 47.3112 26.5844 47.2226C26.5844 47.134 26.5985 47.0602 26.6266 47.0011C26.6689 46.9272 26.7182 46.8756 26.7746 46.846C26.8309 46.8017 26.8943 46.7796 26.9648 46.7796C27.0493 46.7796 27.1197 46.8017 27.1761 46.846C27.2324 46.8756 27.2747 46.9272 27.3029 47.0011C27.3451 47.0602 27.3663 47.134 27.3663 47.2226C27.3663 47.3112 27.3451 47.3851 27.3029 47.4441Z" fill="#666D73"/>
<path fill-rule="evenodd" clip-rule="evenodd" d="M81.1056 11.9109H80.7464V57.6344H81.1056V11.9109ZM205.701 45.6275C205.575 45.5832 205.476 45.5389 205.406 45.4946C205.335 45.4503 205.279 45.406 205.236 45.3617C205.208 45.3026 205.194 45.2288 205.194 45.1402C205.194 44.9777 205.265 44.8374 205.406 44.7193C205.546 44.6159 205.737 44.5642 205.976 44.5642C206.159 44.5642 206.328 44.5863 206.483 44.6306C206.652 44.6897 206.814 44.7783 206.969 44.8965V44.4313C206.828 44.3574 206.681 44.2984 206.526 44.2541C206.371 44.2097 206.194 44.1876 205.997 44.1876C205.828 44.1876 205.666 44.2171 205.511 44.2762C205.37 44.3205 205.244 44.387 205.131 44.4756C205.018 44.5642 204.934 44.6676 204.877 44.7857C204.821 44.9039 204.793 45.0368 204.793 45.1845C204.793 45.3322 204.814 45.4503 204.856 45.5389C204.912 45.6423 204.99 45.7309 205.089 45.8047C205.187 45.8638 205.314 45.9229 205.469 45.982C205.624 46.0263 205.807 46.0706 206.018 46.1149C206.216 46.1592 206.378 46.2035 206.504 46.2478C206.617 46.2921 206.709 46.3438 206.779 46.4029C206.85 46.4472 206.899 46.5063 206.927 46.5801C206.955 46.6392 206.969 46.713 206.969 46.8016C206.969 46.8902 206.955 46.9789 206.927 47.0675C206.885 47.1413 206.828 47.2151 206.758 47.289C206.688 47.3481 206.596 47.3998 206.483 47.4441C206.385 47.4736 206.279 47.4884 206.166 47.4884C205.969 47.4884 205.8 47.4662 205.659 47.4219C205.504 47.3776 205.349 47.3111 205.194 47.2225L204.92 47.4884C205.272 47.7394 205.68 47.865 206.145 47.865C206.328 47.865 206.497 47.8354 206.652 47.7764C206.807 47.7173 206.934 47.6361 207.033 47.5327C207.145 47.4441 207.237 47.3333 207.307 47.2004C207.364 47.0527 207.392 46.905 207.392 46.7573C207.392 46.4767 207.293 46.2626 207.096 46.1149C206.913 45.9524 206.617 45.8269 206.209 45.7383C205.997 45.694 205.828 45.6571 205.701 45.6275ZM208.343 44.2097H207.92V44.542H208.343V44.2097ZM207.92 47.7985H208.343V45.1845H207.92V47.7985ZM209.653 46.2257C209.569 46.1961 209.498 46.1666 209.442 46.137C209.371 46.1075 209.315 46.0632 209.273 46.0041C209.23 45.9598 209.209 45.9081 209.209 45.8491C209.209 45.7457 209.259 45.6571 209.357 45.5832C209.456 45.5094 209.583 45.4725 209.738 45.4725C209.963 45.4725 210.188 45.5241 210.414 45.6275V45.2509C210.301 45.2214 210.188 45.1919 210.076 45.1623C209.977 45.1475 209.871 45.1402 209.759 45.1402C209.618 45.1402 209.491 45.1549 209.378 45.1845C209.266 45.2288 209.167 45.2805 209.083 45.3395C209.012 45.3986 208.949 45.4798 208.892 45.5832C208.85 45.6718 208.829 45.7678 208.829 45.8712V45.8934C208.829 46.0115 208.857 46.1149 208.913 46.2035C208.97 46.2773 209.04 46.3438 209.125 46.4029C209.209 46.4619 209.301 46.5063 209.4 46.5358C209.512 46.5653 209.625 46.5949 209.738 46.6244C209.822 46.6539 209.907 46.6835 209.991 46.713C210.076 46.7425 210.146 46.7721 210.203 46.8016C210.273 46.8312 210.322 46.8755 210.35 46.9345C210.393 46.9788 210.414 47.0305 210.414 47.0896C210.414 47.2225 210.358 47.3259 210.245 47.3998C210.146 47.4736 210.012 47.5105 209.843 47.5105C209.674 47.5105 209.512 47.481 209.357 47.4219C209.202 47.3628 209.047 47.2816 208.892 47.1782V47.5991C209.033 47.673 209.188 47.732 209.357 47.7764C209.512 47.8207 209.667 47.8428 209.822 47.8428C209.963 47.8428 210.09 47.828 210.203 47.7985C210.315 47.769 210.421 47.7173 210.52 47.6434C210.604 47.5844 210.667 47.5031 210.71 47.3998C210.766 47.2964 210.794 47.1856 210.794 47.0675V47.0453C210.794 46.9419 210.766 46.8459 210.71 46.7573C210.667 46.6835 210.604 46.617 210.52 46.5579C210.435 46.4989 210.336 46.4472 210.224 46.4029C210.125 46.3733 210.026 46.3438 209.928 46.3143C209.829 46.2847 209.738 46.2552 209.653 46.2257ZM212.527 47.4441H212.358C212.034 47.4441 211.872 47.2595 211.872 46.8902V45.5168H212.527V45.1845H211.872V44.7193H211.449V46.9124C211.449 47.193 211.527 47.4145 211.682 47.577C211.823 47.7247 212.034 47.7985 212.316 47.7985H212.527V47.4441ZM215.063 47.2004C214.964 47.289 214.852 47.3628 214.725 47.4219C214.598 47.481 214.45 47.5105 214.281 47.5105C214.154 47.5105 214.035 47.4884 213.922 47.4441C213.823 47.4145 213.725 47.3628 213.626 47.289C213.541 47.2004 213.471 47.1044 213.415 47.001C213.358 46.8976 213.323 46.7721 213.309 46.6244H215.465C215.479 46.6096 215.486 46.5875 215.486 46.5579V46.5136C215.486 46.3216 215.457 46.137 215.401 45.9598C215.345 45.7974 215.26 45.6571 215.148 45.5389C215.035 45.406 214.901 45.3026 214.746 45.2288C214.591 45.1697 214.415 45.1402 214.218 45.1402C214.02 45.1402 213.844 45.1697 213.689 45.2288C213.534 45.3026 213.394 45.3986 213.267 45.5168C213.154 45.6497 213.062 45.7974 212.992 45.9598C212.936 46.1223 212.908 46.2995 212.908 46.4915C212.908 46.6835 212.943 46.8681 213.013 47.0453C213.084 47.2078 213.182 47.3481 213.309 47.4662C213.422 47.5844 213.563 47.6804 213.732 47.7542C213.901 47.8133 214.077 47.8428 214.26 47.8428C214.429 47.8428 214.577 47.828 214.704 47.7985C214.845 47.7542 214.964 47.6951 215.063 47.6213V47.2004ZM214.556 45.5389C214.654 45.5832 214.746 45.6423 214.831 45.7161C214.901 45.8047 214.957 45.9007 215 46.0041C215.028 46.1075 215.049 46.2183 215.063 46.3364H213.309C213.323 46.2183 213.358 46.1001 213.415 45.982C213.457 45.8786 213.52 45.79 213.605 45.7161C213.675 45.6275 213.76 45.5611 213.858 45.5168C213.971 45.4725 214.084 45.4503 214.197 45.4503C214.337 45.4503 214.457 45.4798 214.556 45.5389ZM218.486 45.2731C218.317 45.3617 218.176 45.4946 218.064 45.6718C217.965 45.4946 217.824 45.3617 217.641 45.2731C217.472 45.1697 217.282 45.118 217.071 45.118C216.916 45.118 216.761 45.1475 216.606 45.2066C216.465 45.2805 216.338 45.3691 216.225 45.4725C216.127 45.5906 216.042 45.7235 215.972 45.8712C215.915 46.0189 215.887 46.1813 215.887 46.3586V47.7985H216.289V46.3586C216.289 46.2404 216.303 46.1297 216.331 46.0263C216.373 45.9229 216.423 45.8269 216.479 45.7383C216.549 45.6497 216.634 45.5832 216.732 45.5389C216.831 45.4798 216.944 45.4503 217.071 45.4503C217.197 45.4503 217.31 45.4798 217.409 45.5389C217.507 45.5832 217.592 45.6497 217.662 45.7383C217.733 45.8269 217.782 45.9229 217.81 46.0263C217.852 46.1297 217.874 46.2404 217.874 46.3586V47.7985H218.275V46.3586C218.275 46.2404 218.289 46.1297 218.317 46.0263C218.346 45.9229 218.395 45.8269 218.465 45.7383C218.536 45.6497 218.62 45.5832 218.719 45.5389C218.817 45.4798 218.93 45.4503 219.057 45.4503C219.184 45.4503 219.296 45.4798 219.395 45.5389C219.494 45.5832 219.578 45.6497 219.649 45.7383C219.705 45.8269 219.754 45.9229 219.797 46.0263C219.825 46.1297 219.839 46.2404 219.839 46.3586V47.289V47.7985H220.262V46.3586C220.262 46.1813 220.226 46.0189 220.156 45.8712C220.1 45.7235 220.015 45.5906 219.902 45.4725C219.79 45.3691 219.663 45.2805 219.522 45.2066C219.381 45.1475 219.226 45.118 219.057 45.118C218.846 45.118 218.655 45.1697 218.486 45.2731ZM221.635 45.1623C221.494 45.1919 221.36 45.2362 221.234 45.2952V45.6718C221.346 45.6128 221.473 45.5611 221.614 45.5168C221.741 45.4872 221.889 45.4725 222.058 45.4725C222.311 45.4725 222.509 45.5315 222.649 45.6497C222.79 45.7678 222.861 45.9524 222.861 46.2035V46.27C222.734 46.2257 222.593 46.1961 222.438 46.1813C222.269 46.1666 222.1 46.1592 221.931 46.1592C221.579 46.1592 221.304 46.233 221.107 46.3807C220.91 46.5284 220.811 46.7426 220.811 47.0232C220.811 47.1561 220.839 47.2742 220.895 47.3776C220.938 47.481 221.008 47.5696 221.107 47.6434C221.191 47.7025 221.297 47.7542 221.424 47.7985C221.536 47.828 221.656 47.8428 221.783 47.8428C221.896 47.8428 222.008 47.8354 222.121 47.8207C222.234 47.7911 222.34 47.7542 222.438 47.7099C222.523 47.6656 222.6 47.6139 222.671 47.5548C222.755 47.5105 222.819 47.4588 222.861 47.3998V47.7985H223.262V46.1813C223.262 45.8269 223.157 45.5611 222.945 45.3838C222.748 45.2066 222.459 45.118 222.079 45.118C221.91 45.118 221.762 45.1328 221.635 45.1623ZM222.861 46.8238C222.861 46.9272 222.833 47.0232 222.776 47.1118C222.72 47.2004 222.649 47.2742 222.565 47.3333C222.466 47.3924 222.354 47.4441 222.227 47.4884C222.114 47.5179 221.994 47.5327 221.868 47.5327C221.684 47.5327 221.529 47.4884 221.403 47.3998C221.29 47.3111 221.234 47.1782 221.234 47.001C221.234 46.8238 221.29 46.6909 221.403 46.6022C221.529 46.4989 221.72 46.4472 221.973 46.4472C222.142 46.4472 222.311 46.4619 222.48 46.4915C222.635 46.5063 222.762 46.5284 222.861 46.5579V46.8238ZM227.235 47.4884C227.179 47.4884 227.13 47.4884 227.087 47.4884C227.045 47.4884 227.003 47.4884 226.96 47.4884C226.749 47.4884 226.559 47.4514 226.39 47.3776C226.207 47.3038 226.052 47.2004 225.925 47.0675C225.798 46.9493 225.7 46.7942 225.629 46.6022C225.559 46.425 225.523 46.233 225.523 46.0263C225.523 45.8195 225.559 45.6275 225.629 45.4503C225.7 45.2731 225.798 45.1254 225.925 45.0072C226.052 44.8743 226.207 44.771 226.39 44.6971C226.559 44.6233 226.749 44.5863 226.96 44.5863C227.003 44.5863 227.045 44.5863 227.087 44.5863C227.13 44.5863 227.179 44.5863 227.235 44.5863V44.2319C227.137 44.2171 227.045 44.2097 226.96 44.2097C226.679 44.2097 226.425 44.2614 226.2 44.3648C225.974 44.4534 225.777 44.579 225.608 44.7414C225.453 44.9186 225.326 45.118 225.228 45.3395C225.129 45.5611 225.08 45.7974 225.08 46.0484C225.08 46.2995 225.129 46.5358 225.228 46.7573C225.326 46.9789 225.453 47.1708 225.608 47.3333C225.777 47.4958 225.974 47.6213 226.2 47.7099C226.425 47.8133 226.672 47.865 226.939 47.865C227.038 47.865 227.137 47.8576 227.235 47.8428V47.4884ZM229.327 47.7764C229.496 47.7025 229.644 47.5991 229.771 47.4662C229.898 47.3481 229.996 47.2078 230.067 47.0453C230.137 46.8829 230.173 46.7056 230.173 46.5136C230.173 46.3216 230.137 46.1444 230.067 45.982C229.996 45.8195 229.898 45.6792 229.771 45.5611C229.644 45.4282 229.496 45.3248 229.327 45.2509C229.158 45.1771 228.968 45.1402 228.757 45.1402C228.545 45.1402 228.355 45.1771 228.186 45.2509C228.017 45.3248 227.869 45.4282 227.742 45.5611C227.616 45.6792 227.517 45.8195 227.446 45.982C227.376 46.1592 227.341 46.3364 227.341 46.5136C227.341 46.7056 227.376 46.8829 227.446 47.0453C227.517 47.2078 227.609 47.3554 227.721 47.4884C227.848 47.6065 228.003 47.7025 228.186 47.7764C228.355 47.8502 228.545 47.8871 228.757 47.8871C228.954 47.8871 229.144 47.8502 229.327 47.7764ZM229.137 45.5611C229.25 45.6201 229.348 45.694 229.433 45.7826C229.517 45.886 229.588 45.9967 229.644 46.1149C229.687 46.233 229.708 46.366 229.708 46.5136C229.708 46.6613 229.687 46.7942 229.644 46.9124C229.602 47.0305 229.539 47.1413 229.454 47.2447C229.37 47.3333 229.271 47.3998 229.158 47.4441C229.031 47.5031 228.898 47.5327 228.757 47.5327C228.602 47.5327 228.468 47.5031 228.355 47.4441C228.242 47.385 228.144 47.3111 228.059 47.2225C227.975 47.1339 227.904 47.0305 227.848 46.9124C227.806 46.7795 227.785 46.6466 227.785 46.5136C227.785 46.366 227.806 46.233 227.848 46.1149C227.89 45.982 227.954 45.8712 228.038 45.7826C228.123 45.694 228.221 45.6201 228.334 45.5611C228.461 45.5168 228.595 45.4946 228.736 45.4946C228.891 45.4946 229.024 45.5168 229.137 45.5611ZM233.131 45.2952C232.962 45.3838 232.821 45.5168 232.708 45.694C232.596 45.5168 232.455 45.3838 232.286 45.2952C232.117 45.1919 231.927 45.1402 231.715 45.1402C231.546 45.1402 231.391 45.1697 231.25 45.2288C231.109 45.3026 230.983 45.3912 230.87 45.4946C230.757 45.6128 230.673 45.7457 230.616 45.8934C230.546 46.041 230.511 46.2035 230.511 46.3807V47.8207H230.933V46.3807C230.933 46.2626 230.947 46.1518 230.976 46.0484C231.018 45.945 231.067 45.8491 231.124 45.7604C231.194 45.6718 231.278 45.6054 231.377 45.5611C231.476 45.502 231.588 45.4725 231.715 45.4725C231.842 45.4725 231.955 45.502 232.053 45.5611C232.152 45.6054 232.236 45.6718 232.307 45.7604C232.363 45.8491 232.413 45.945 232.455 46.0484C232.483 46.1518 232.497 46.2626 232.497 46.3807V47.8207H232.899V46.3807C232.899 46.2626 232.92 46.1518 232.962 46.0484C232.99 45.945 233.039 45.8491 233.11 45.7604C233.18 45.6718 233.265 45.6054 233.364 45.5611C233.462 45.502 233.575 45.4725 233.702 45.4725C233.828 45.4725 233.941 45.502 234.04 45.5611C234.138 45.6054 234.216 45.6718 234.272 45.7604C234.343 45.8491 234.399 45.945 234.441 46.0484C234.469 46.1518 234.484 46.2626 234.484 46.3807V47.3111V47.8207H234.885V46.3807C234.885 46.2035 234.857 46.041 234.801 45.8934C234.73 45.7457 234.646 45.6128 234.547 45.4946C234.434 45.3912 234.307 45.3026 234.167 45.2288C234.012 45.1697 233.857 45.1402 233.702 45.1402C233.49 45.1402 233.3 45.1919 233.131 45.2952ZM237.611 47.2225C237.512 47.3259 237.4 47.3998 237.273 47.4441C237.146 47.5031 236.998 47.5327 236.829 47.5327C236.702 47.5327 236.59 47.5105 236.491 47.4662C236.378 47.4367 236.28 47.385 236.195 47.3111C236.111 47.2373 236.04 47.1413 235.984 47.0232C235.913 46.9198 235.878 46.7942 235.878 46.6466H238.034C238.034 46.6318 238.034 46.6096 238.034 46.5801V46.5358C238.034 46.3438 238.006 46.1666 237.949 46.0041C237.893 45.8269 237.808 45.6792 237.696 45.5611C237.597 45.4282 237.463 45.3322 237.294 45.2731C237.139 45.1992 236.963 45.1623 236.766 45.1623C236.569 45.1623 236.392 45.1919 236.238 45.2509C236.083 45.3248 235.949 45.4282 235.836 45.5611C235.723 45.6792 235.632 45.8195 235.561 45.982C235.491 46.1444 235.456 46.3216 235.456 46.5136C235.456 46.7204 235.491 46.905 235.561 47.0675C235.632 47.2299 235.73 47.3702 235.857 47.4884C235.984 47.6065 236.125 47.7025 236.28 47.7764C236.449 47.8354 236.625 47.865 236.808 47.865C236.991 47.865 237.146 47.8502 237.273 47.8207C237.4 47.7764 237.512 47.7173 237.611 47.6434V47.2225ZM237.104 45.5611C237.217 45.6054 237.308 45.6644 237.379 45.7383C237.449 45.8269 237.505 45.9229 237.548 46.0263C237.59 46.1444 237.611 46.2626 237.611 46.3807H235.878C235.878 46.2478 235.906 46.1297 235.963 46.0263C236.019 45.9081 236.083 45.8121 236.153 45.7383C236.223 45.6644 236.315 45.598 236.428 45.5389C236.526 45.4946 236.632 45.4725 236.745 45.4725C236.886 45.4725 237.005 45.502 237.104 45.5611ZM236.829 44.8079L237.484 44.2097H236.977L236.533 44.8079H236.829ZM239.555 45.1623C239.386 45.1623 239.231 45.1919 239.09 45.2509C238.949 45.31 238.823 45.3986 238.71 45.5168C238.611 45.6349 238.527 45.7678 238.456 45.9155C238.4 46.0632 238.372 46.2183 238.372 46.3807V47.8207H238.773V46.3807C238.773 46.2773 238.795 46.174 238.837 46.0706C238.879 45.9672 238.935 45.8786 239.006 45.8047C239.076 45.7309 239.161 45.6644 239.259 45.6054C239.344 45.5611 239.443 45.5389 239.555 45.5389H239.703V45.1623H239.555ZM241.478 47.5105C241.422 47.5253 241.359 47.5327 241.288 47.5327C241.133 47.5327 240.985 47.5105 240.844 47.4662C240.718 47.4071 240.612 47.3333 240.527 47.2447C240.429 47.1561 240.351 47.0453 240.295 46.9124C240.239 46.7942 240.21 46.6613 240.21 46.5136C240.21 46.366 240.239 46.233 240.295 46.1149C240.351 45.9967 240.422 45.886 240.506 45.7826C240.605 45.694 240.718 45.6201 240.844 45.5611C240.971 45.5168 241.105 45.4946 241.246 45.4946C241.33 45.4946 241.408 45.502 241.478 45.5168V45.1623C241.408 45.1623 241.33 45.1623 241.246 45.1623C241.035 45.1623 240.837 45.1919 240.654 45.2509C240.471 45.3248 240.316 45.4282 240.189 45.5611C240.062 45.6792 239.957 45.8269 239.872 46.0041C239.802 46.1666 239.767 46.3438 239.767 46.5358C239.767 46.713 239.802 46.8829 239.872 47.0453C239.957 47.2078 240.062 47.3554 240.189 47.4884C240.316 47.6065 240.471 47.7025 240.654 47.7764C240.837 47.8502 241.035 47.8871 241.246 47.8871C241.33 47.8871 241.408 47.8797 241.478 47.865V47.5105ZM242.45 44.2319H242.028V44.5642H242.45V44.2319ZM242.028 47.8207H242.45V45.2066H242.028V47.8207ZM244.817 47.7764C244.986 47.7025 245.134 47.5991 245.261 47.4662C245.388 47.3481 245.493 47.2078 245.578 47.0453C245.648 46.8829 245.684 46.7056 245.684 46.5136C245.684 46.3216 245.648 46.1444 245.578 45.982C245.508 45.8195 245.409 45.6792 245.282 45.5611C245.155 45.4282 245 45.3248 244.817 45.2509C244.648 45.1919 244.458 45.1623 244.247 45.1623C244.049 45.1623 243.859 45.1919 243.676 45.2509C243.507 45.3248 243.359 45.4282 243.232 45.5611C243.105 45.6792 243.007 45.8195 242.936 45.982C242.866 46.1592 242.831 46.3364 242.831 46.5136C242.831 46.7056 242.866 46.8829 242.936 47.0453C243.007 47.2078 243.105 47.3554 243.232 47.4884C243.359 47.6065 243.507 47.7025 243.676 47.7764C243.845 47.8502 244.035 47.8871 244.247 47.8871C244.458 47.8871 244.648 47.8502 244.817 47.7764ZM244.627 45.5611C244.754 45.6201 244.859 45.694 244.944 45.7826C245.029 45.886 245.092 45.9967 245.134 46.1149C245.191 46.2478 245.219 46.3807 245.219 46.5136C245.219 46.6613 245.191 46.7942 245.134 46.9124C245.092 47.0305 245.029 47.1413 244.944 47.2447C244.874 47.3333 244.775 47.3998 244.648 47.4441C244.535 47.5031 244.402 47.5327 244.247 47.5327C244.106 47.5327 243.979 47.5031 243.866 47.4441C243.739 47.3998 243.634 47.3259 243.549 47.2225C243.465 47.1339 243.401 47.0305 243.359 46.9124C243.317 46.7795 243.296 46.6466 243.296 46.5136C243.296 46.366 243.317 46.233 243.359 46.1149C243.401 45.982 243.465 45.8712 243.549 45.7826C243.62 45.694 243.718 45.6201 243.845 45.5611C243.958 45.5168 244.092 45.4946 244.247 45.4946C244.388 45.4946 244.514 45.5168 244.627 45.5611ZM249.614 46.713H352V46.4693H249.614V46.713Z" fill="#004A8D"/>
<path fill-rule="evenodd" clip-rule="evenodd" d="M98.4763 46.4472H200.862V46.6909H98.4763V46.4472ZM161.366 33.1112C161.366 32.7567 161.641 32.4688 162 32.4688C162.338 32.4688 162.613 32.7567 162.613 33.1112C162.613 33.4878 162.338 33.7758 162 33.7758C161.641 33.7758 161.366 33.4878 161.366 33.1112Z" fill="#004A8D"/>
<path d="M161.366 33.1112C161.366 32.7568 161.641 32.4467 162 32.4467C162.338 32.4467 162.613 32.7568 162.613 33.1112C162.613 33.4657 162.338 33.7758 162 33.7758C161.641 33.7758 161.366 33.4657 161.366 33.1112Z" fill="#004A8D"/>
<path d="M184.886 22.5443H179.751C178.631 22.5443 177.469 23.1867 176.94 23.5855C174.362 25.5128 173.115 29.3895 173.115 29.3895C173.454 28.7471 176.074 23.7184 179.645 23.7184H183.386C183.386 23.7184 183.407 24.3608 183.069 24.8261C185.119 24.0729 184.886 22.5443 184.886 22.5443Z" fill="#C79633"/>
<path d="M180.406 25.2026C180.385 25.3356 180.364 25.7122 180.195 26.0223C181.864 25.8672 182.688 25.3577 183.069 24.826C182.414 25.0476 181.568 25.2026 180.406 25.2026Z" fill="#C79633"/>
<path fill-rule="evenodd" clip-rule="evenodd" d="M180.195 26.0222C179.941 26.5982 179.307 27.1742 177.595 27.152C175.398 27.1077 174.172 28.3704 173.538 29.0572C174.172 28.0603 175.44 26.0001 178.145 26.0665C178.821 26.0665 179.18 26.0887 179.18 26.0887C179.561 26.0887 179.899 26.0665 180.195 26.0222ZM182.181 32.9339C182.181 34.0194 183.174 34.7504 184.611 34.7504C184.696 34.7504 184.787 34.7504 184.886 34.7504V36.1018C184.802 36.1165 184.71 36.1239 184.611 36.1239C182.815 36.1239 180.892 35.4593 180.385 33.8422V36.1239H178.42L175.038 32.1807V36.1239H172.186V36.1018C170.094 36.1018 167.875 35.2156 167.875 32.9561C167.875 30.9845 169.819 30.054 171.805 29.9433V31.3167C170.601 31.4275 169.798 31.9813 169.798 32.9339C169.798 33.9972 170.791 34.7504 172.207 34.7504H173.115V29.9433C174.172 29.9433 175.229 30.342 176.116 31.3611C176.983 32.3579 178.462 34.0859 178.462 34.0859V29.9433H180.385V32.1143C180.892 30.6079 182.815 29.9433 184.611 29.9433C184.696 29.9433 184.802 29.9433 184.886 29.9433V31.3167C184.787 31.302 184.696 31.2946 184.611 31.2946C183.174 31.2946 182.181 31.8706 182.181 32.9339ZM189.387 33.7757C189.049 33.7757 188.753 33.4656 188.753 33.1111C188.753 32.7567 189.049 32.4465 189.387 32.4465C189.747 32.4465 190.021 32.7567 190.021 33.1111C190.021 33.4656 189.747 33.7757 189.387 33.7757ZM292.492 33.7757C292.153 33.7757 291.879 33.4656 291.879 33.1111C291.879 32.7567 292.153 32.4465 292.492 32.4465C292.851 32.4465 293.126 32.7567 293.126 33.1111C293.126 33.4656 292.851 33.7757 292.492 33.7757ZM322.626 33.7757C322.288 33.7757 322.013 33.4656 322.013 33.1111C322.013 32.7567 322.288 32.4465 322.626 32.4465C322.985 32.4465 323.26 32.7567 323.26 33.1111C323.26 33.4656 322.985 33.7757 322.626 33.7757Z" fill="#004A8D"/>
<path d="M301.959 31.3168C303.185 29.6996 306.545 26.4653 311.109 26.4653C314.321 26.4653 316.751 28.3705 316.751 28.3705C314.955 27.4622 307.791 25.9558 302.17 31.4054L301.959 31.3168Z" fill="#F5BF00"/>
<path d="M316.392 31.8928C316.505 31.8928 316.625 31.9002 316.751 31.915V30.8738C316.526 30.8442 316.287 30.8295 316.033 30.8295C314.3 30.8295 312.969 31.9371 312.969 33.3992C312.969 33.5026 312.976 33.5986 312.99 33.6872C312.736 33.2441 312.166 33.0005 311.363 32.8232C310.327 32.6239 310.179 32.5131 310.2 32.2916C310.222 32.0479 310.56 31.8485 311.088 31.8485C311.426 31.8485 311.87 31.9371 312.25 32.1143V31.0288C311.87 30.8959 311.468 30.8295 311.003 30.8295C309.714 30.8295 308.848 31.4719 308.763 32.3802C308.763 32.3802 308.763 32.3876 308.763 32.4023C308.446 31.5162 307.728 30.8516 306.46 30.8516C304.938 30.8516 303.903 32.0036 303.903 33.4214C303.903 33.4657 303.903 33.5026 303.903 33.5321C303.607 32.8897 302.868 32.5795 301.853 32.358C300.67 32.0922 300.501 31.9593 300.501 31.6713C300.501 31.4054 300.797 31.1618 301.283 31.1839C301.642 31.1839 301.874 31.2725 301.959 31.3168C302.255 30.9329 302.572 30.571 302.91 30.2313C302.417 30.0394 301.874 29.9434 301.283 29.9434C299.867 29.9434 298.874 30.6744 298.874 31.782C298.874 32.646 299.317 33.0448 300.057 33.3106C300.099 33.3106 300.205 33.3549 300.289 33.3771C300.543 33.4509 300.825 33.5247 301.135 33.5986C302.318 33.8644 302.403 34.0859 302.403 34.3296C302.403 34.6176 302.086 34.7727 301.536 34.7727C300.923 34.7727 300.353 34.5955 299.74 34.1746C299.444 34.6176 299.106 35.105 298.937 35.393C299.698 35.8139 300.585 36.0797 301.515 36.0797C303.015 36.0797 303.966 35.4151 304.03 34.2853C304.347 35.3043 305.234 35.9689 306.439 35.9689C306.671 35.9689 307.009 35.9689 307.559 35.8139V34.7284C307.052 34.8834 306.84 34.9056 306.523 34.8834C305.932 34.8613 305.446 34.5068 305.298 33.8866H308.932C308.932 33.7536 308.954 33.665 308.954 33.5321V33.51C308.954 33.3771 308.947 33.2441 308.932 33.1112C309.207 33.51 309.82 33.6872 310.644 33.8644C311.659 34.0638 311.701 34.241 311.701 34.4847C311.701 34.7062 311.447 34.9499 310.834 34.9278C310.222 34.9056 309.503 34.7284 308.954 34.3961V35.6366C309.524 35.9025 310.264 36.0797 310.834 36.0797C312.208 36.0797 313.138 35.2379 313.138 34.3296C313.138 34.3149 313.138 34.3001 313.138 34.2853C313.391 34.8613 313.856 35.3265 314.406 35.5923C314.934 35.8803 315.526 35.9689 315.991 35.9689C316.265 35.9689 316.519 35.9468 316.751 35.9025V34.8391C316.625 34.8687 316.505 34.8834 316.392 34.8834C315.378 34.8834 314.554 34.1967 314.554 33.3771C314.554 32.5574 315.378 31.8928 316.392 31.8928ZM305.298 33.0226C305.425 32.3802 305.826 31.9814 306.481 31.9814C307.115 31.9814 307.517 32.4023 307.622 33.0226H305.298Z" fill="#004A8D"/>
<path d="M300.332 33.3992C299.951 33.8423 299.233 34.8835 298.937 35.393C298.662 35.2158 298.514 35.105 298.387 34.9942C298.81 34.4847 299.486 33.7537 300.036 33.2885C300.036 33.2885 300.289 33.3771 300.332 33.3992Z" fill="#F5BF00"/>
<path d="M343.611 26.399C345.787 25.3135 348.069 24.8483 350.225 24.959C348.365 24.0951 346.252 23.6299 343.991 23.7185C342.871 23.7628 341.793 23.94 340.779 24.228C340.272 24.9369 339.87 25.7122 339.532 26.5097C340.025 27.0119 340.56 27.4845 341.138 27.9275C341.899 27.3515 342.723 26.8199 343.611 26.399Z" fill="#F29100"/>
<path d="M341.138 27.9276C341.068 27.8685 340.997 27.8168 340.927 27.7725C340.49 27.418 340.081 27.0488 339.701 26.6648C339.687 26.6501 339.673 26.6353 339.659 26.6205L339.638 26.5984L339.617 26.5762L339.595 26.5541L339.574 26.5319L339.532 26.5098C339.87 25.7123 340.272 24.9369 340.779 24.228C339.934 24.4643 339.13 24.7671 338.37 25.1363C338.722 25.6237 339.109 26.0815 339.532 26.5098C339.088 27.6617 338.835 28.9023 338.835 30.1871C339.511 29.3675 340.272 28.6143 341.138 27.9276ZM339.701 26.6648C339.687 26.6501 339.673 26.6353 339.659 26.6205L339.701 26.6648Z" fill="#FAC482"/>
<path fill-rule="evenodd" clip-rule="evenodd" d="M352 36.0798C351.944 36.0798 351.887 36.0798 351.831 36.0798C350.119 36.0798 348.746 35.1272 348.408 33.798V35.8361H346.949V35.2601C346.59 35.6367 346.083 35.9025 345.343 35.9025C344.477 35.9025 343.758 35.5038 343.568 34.7506V35.8361H342.068V33.1334C342.047 32.6461 341.835 32.0701 341.159 32.0701C340.483 32.0701 340.293 32.6461 340.272 33.1334V35.8361H338.75V33.8423H335.136C335.284 34.4626 335.749 34.7949 336.426 34.7949C336.468 34.7949 336.616 34.7949 336.658 34.7949V35.9025C336.595 35.9247 336.447 35.9247 336.404 35.9247C335.2 35.9247 334.207 35.3044 333.826 34.3518C333.763 35.4816 332.749 36.1241 331.312 36.1241C330.255 36.1241 329.346 35.7918 328.522 35.1494L329.41 34.2189C330.022 34.662 330.551 34.95 331.333 34.95C331.946 34.95 332.326 34.7284 332.326 34.374C332.326 34.0417 332.22 33.8645 331.058 33.5987C329.684 33.2885 328.797 32.9562 328.797 31.7821V31.76C328.797 30.6745 329.79 29.9434 331.206 29.9434C331.481 29.9434 331.882 30.0099 332.136 30.0542V31.2948C331.861 31.2061 331.481 31.1175 331.185 31.1175C330.593 31.1175 330.297 31.3391 330.297 31.627V31.6492C330.297 32.048 330.466 32.1809 331.65 32.4467C332.643 32.6682 333.34 32.9562 333.636 33.4879C333.636 33.4584 333.636 33.4214 333.636 33.3771V33.355C333.636 31.9593 334.714 30.8074 336.256 30.8074C337.778 30.8074 338.56 31.7378 338.771 32.8898C338.877 31.7378 339.659 30.8739 341.159 30.8739C342.808 30.8739 343.568 31.8929 343.568 33.2221V33.9974C343.737 33.2442 344.456 32.779 345.851 32.8233C346.21 32.8233 346.611 32.8455 346.971 32.8898C346.956 32.5649 346.823 32.3286 346.569 32.1809C346.379 32.0701 345.977 32.0258 345.681 32.0258V30.8295C345.745 30.8295 345.977 30.8295 346.041 30.8295C347.52 30.8295 348.26 31.472 348.386 32.5796C348.682 31.184 350.077 30.1871 351.873 30.1871C351.915 30.1871 351.958 30.1871 352 30.1871V31.3834C351.958 31.3686 351.908 31.3612 351.852 31.3612C350.817 31.3612 350.014 32.1366 350.014 33.1113V33.1334C350.014 34.1746 350.817 34.9057 351.937 34.9057C351.965 34.9057 351.986 34.9057 352 34.9057V36.0798ZM346.971 33.7537C346.971 33.7537 345.681 33.5765 345.174 33.9088C344.794 34.1525 344.836 34.9721 345.977 34.9057C346.125 34.9057 346.844 34.7949 346.971 34.086C346.992 33.9309 346.971 33.8202 346.971 33.7537ZM348.682 23.8736C347.034 23.2533 345.195 22.921 343.251 22.9874C342.702 23.017 342.166 23.0687 341.645 23.1425C342.124 22.6108 342.653 22.1235 343.23 21.6804C343.244 21.6804 343.258 21.6804 343.272 21.6804C343.674 21.7469 344.075 21.8355 344.456 21.9241C346.041 22.345 347.478 23.0096 348.682 23.8736ZM337.377 32.9784C337.292 32.3359 336.89 31.915 336.256 31.915C335.644 31.915 335.242 32.3359 335.115 32.9784H337.377ZM198.157 32.4246C198.467 32.5132 198.742 32.6018 198.981 32.6904C199.235 32.7938 199.446 32.9193 199.615 33.067C199.784 33.1999 199.918 33.3624 200.017 33.5543C200.101 33.7463 200.144 33.9753 200.144 34.2411V34.2632C200.144 34.5586 200.087 34.8171 199.975 35.0386C199.862 35.2749 199.7 35.4743 199.489 35.6367C199.291 35.7844 199.052 35.9025 198.77 35.9912C198.488 36.065 198.178 36.1019 197.84 36.1019C196.882 36.1019 196.03 35.7844 195.283 35.1494L196.107 34.2189C196.389 34.4405 196.664 34.6177 196.932 34.7506C197.199 34.8835 197.509 34.95 197.861 34.95C198.157 34.95 198.383 34.8983 198.538 34.7949C198.693 34.6915 198.77 34.5512 198.77 34.374C198.77 34.2854 198.756 34.2042 198.728 34.1303C198.714 34.0712 198.664 34.0122 198.58 33.9531C198.509 33.894 198.397 33.8349 198.242 33.7759C198.087 33.7168 197.875 33.6577 197.608 33.5987C197.298 33.5248 197.016 33.4436 196.762 33.355C196.509 33.2664 196.291 33.1556 196.107 33.0227C195.924 32.8898 195.783 32.7199 195.685 32.5132C195.586 32.3064 195.537 32.0553 195.537 31.76V31.7378C195.537 31.472 195.593 31.2283 195.706 31.0068C195.804 30.7852 195.952 30.5932 196.15 30.4308C196.347 30.2831 196.579 30.165 196.847 30.0764C197.115 29.9877 197.411 29.9434 197.735 29.9434C197.918 29.9434 198.101 29.9656 198.284 30.0099C198.481 30.0394 198.636 30.069 198.749 30.0985V31.3612C198.622 31.3021 198.467 31.2431 198.284 31.184C198.087 31.1397 197.897 31.1175 197.713 31.1175C197.446 31.1175 197.249 31.1618 197.122 31.2505C196.981 31.3538 196.91 31.4794 196.91 31.627V31.6492C196.91 31.7526 196.924 31.8338 196.953 31.8929C196.981 31.9667 197.037 32.0332 197.122 32.0923C197.206 32.1513 197.333 32.203 197.502 32.2473C197.671 32.3064 197.89 32.3655 198.157 32.4246Z" fill="#004A8D"/>
<path fill-rule="evenodd" clip-rule="evenodd" d="M200.376 31.494H201.771V35.9911H200.376V31.494ZM201.771 30.8073H200.376V29.8104H201.771V30.8073ZM206.821 35.9911H205.427V33.4656C205.427 33.3623 205.413 33.2441 205.384 33.1112C205.356 32.9931 205.307 32.8897 205.237 32.8011C205.18 32.6977 205.096 32.6165 204.983 32.5574C204.87 32.4983 204.736 32.4688 204.581 32.4688C204.412 32.4688 204.279 32.4983 204.18 32.5574C204.067 32.6165 203.983 32.6977 203.926 32.8011C203.856 32.8897 203.807 32.9931 203.778 33.1112C203.75 33.2441 203.736 33.3623 203.736 33.4656V35.9911H202.32V33.5543C202.32 33.2441 202.37 32.9561 202.468 32.6903C202.553 32.4245 202.694 32.1955 202.891 32.0036C203.074 31.7968 203.306 31.6417 203.588 31.5383C203.87 31.4202 204.201 31.3611 204.581 31.3611C204.962 31.3611 205.293 31.4202 205.575 31.5383C205.856 31.6417 206.089 31.7968 206.272 32.0036C206.455 32.1955 206.589 32.4245 206.674 32.6903C206.772 32.9561 206.821 33.2441 206.821 33.5543V35.9911ZM209.209 31.4497C209.435 31.4497 209.646 31.4867 209.843 31.5605C210.026 31.6196 210.21 31.7082 210.393 31.8263V29.8104H211.788V35.9911H210.393V35.7474C210.21 35.8655 210.026 35.9541 209.843 36.0132C209.646 36.0723 209.435 36.1018 209.209 36.1018C208.914 36.1018 208.632 36.0428 208.364 35.9246C208.11 35.8065 207.885 35.644 207.688 35.4372C207.491 35.2157 207.336 34.9647 207.223 34.6841C207.11 34.4034 207.054 34.1007 207.054 33.7758C207.054 33.4656 207.11 33.1703 207.223 32.8897C207.336 32.5943 207.491 32.3432 207.688 32.1365C207.885 31.9297 208.11 31.7599 208.364 31.627C208.632 31.5088 208.914 31.4497 209.209 31.4497ZM209.4 35.0828C209.597 35.0828 209.759 35.0459 209.886 34.972C210.012 34.913 210.118 34.8244 210.203 34.7062C210.273 34.5881 210.322 34.4478 210.351 34.2853C210.379 34.1376 210.393 33.9678 210.393 33.7758C210.393 33.5986 210.379 33.4361 210.351 33.2884C210.322 33.126 210.273 32.9857 210.203 32.8675C210.118 32.7494 210.012 32.6534 209.886 32.5795C209.759 32.5205 209.597 32.4909 209.4 32.4909C209.188 32.4909 209.012 32.5205 208.871 32.5795C208.744 32.6534 208.646 32.7494 208.575 32.8675C208.505 32.9857 208.456 33.126 208.427 33.2884C208.399 33.4361 208.385 33.5986 208.385 33.7758C208.385 33.9678 208.399 34.1376 208.427 34.2853C208.456 34.4478 208.505 34.5881 208.575 34.7062C208.646 34.8244 208.744 34.913 208.871 34.972C209.012 35.0459 209.188 35.0828 209.4 35.0828ZM212.823 31.494H214.218V35.9911H212.823V31.494ZM214.218 30.8073H212.823V29.8104H214.218V30.8073ZM214.387 33.7093C214.387 33.3401 214.443 33.0226 214.556 32.7568C214.683 32.4762 214.838 32.2472 215.021 32.07C215.218 31.8928 215.436 31.7525 215.676 31.6491C215.929 31.531 216.169 31.4497 216.394 31.4054C216.634 31.3611 216.859 31.339 217.071 31.339C217.282 31.339 217.458 31.3611 217.599 31.4054V32.358C217.444 32.3285 217.261 32.3285 217.049 32.358C216.838 32.3875 216.634 32.454 216.437 32.5574C216.239 32.6608 216.07 32.8084 215.929 33.0004C215.789 33.1924 215.718 33.4287 215.718 33.7093C215.718 34.0047 215.789 34.2484 215.929 34.4404C216.07 34.6324 216.239 34.78 216.437 34.8834C216.634 34.9868 216.838 35.0533 217.049 35.0828C217.261 35.0976 217.444 35.0902 217.599 35.0607V36.0354C217.458 36.0797 217.282 36.1018 217.071 36.1018C216.859 36.1018 216.634 36.0797 216.394 36.0354C216.169 35.9911 215.929 35.9098 215.676 35.7917C215.436 35.6883 215.218 35.548 215.021 35.3708C214.838 35.1788 214.683 34.9499 214.556 34.6841C214.443 34.4182 214.387 34.0933 214.387 33.7093ZM220.114 31.3833C220.874 31.3833 221.431 31.5605 221.783 31.9149C222.135 32.2546 222.311 32.7346 222.311 33.3549V36.0132H220.959V35.5037C220.79 35.6957 220.586 35.8434 220.346 35.9468C220.107 36.0501 219.818 36.1018 219.48 36.1018C219.24 36.1018 219.022 36.0649 218.825 35.9911C218.627 35.932 218.451 35.8434 218.296 35.7252C218.141 35.6071 218.022 35.4668 217.937 35.3043C217.838 35.1271 217.789 34.9277 217.789 34.7062V34.6841C217.789 34.433 217.838 34.2188 217.937 34.0416C218.036 33.8496 218.169 33.6946 218.339 33.5764C218.522 33.4583 218.733 33.3696 218.972 33.3106C219.212 33.2515 219.48 33.222 219.776 33.222C220.029 33.222 220.247 33.2441 220.431 33.2884C220.614 33.318 220.797 33.3623 220.98 33.4213V33.3327C220.98 32.7715 220.628 32.4909 219.923 32.4909C219.613 32.4909 219.353 32.5205 219.142 32.5795V31.4719C219.282 31.4424 219.437 31.4202 219.606 31.4054C219.761 31.3907 219.93 31.3833 220.114 31.3833ZM221.001 34.1745C220.874 34.1155 220.733 34.0712 220.579 34.0416C220.438 34.0121 220.283 33.9973 220.114 33.9973C219.804 33.9973 219.564 34.049 219.395 34.1524C219.226 34.2705 219.142 34.4256 219.142 34.6176V34.6397C219.142 34.817 219.212 34.9573 219.353 35.0607C219.494 35.1493 219.677 35.1936 219.902 35.1936C220.226 35.1936 220.487 35.1197 220.684 34.972C220.896 34.8244 221.001 34.6324 221.001 34.3961V34.1745ZM225.27 31.4719V32.4023H223.96V34.1524C223.96 34.3148 223.988 34.4625 224.044 34.5954C224.101 34.7284 224.227 34.8391 224.425 34.9277C224.565 34.9868 224.706 35.0237 224.847 35.0385C224.988 35.068 225.129 35.0828 225.27 35.0828V36.0797H225.016C224.185 36.0797 223.572 35.9172 223.178 35.5923C222.769 35.2526 222.565 34.78 222.565 34.1745V30.7187H223.96V31.4719H225.27Z" fill="#004A8D"/>
<path fill-rule="evenodd" clip-rule="evenodd" d="M226.707 31.5162C226.425 31.6491 226.172 31.819 225.946 32.0257C225.735 32.2473 225.566 32.4983 225.439 32.7789C225.326 33.0743 225.27 33.3845 225.27 33.7094C225.27 34.0343 225.326 34.3444 225.439 34.6398C225.566 34.9204 225.735 35.1714 225.946 35.393C226.172 35.5997 226.425 35.7696 226.707 35.9025C227.003 36.0206 227.313 36.0797 227.637 36.0797C227.961 36.0797 228.271 36.0206 228.567 35.9025C228.848 35.7696 229.102 35.5997 229.327 35.393C229.539 35.1714 229.708 34.9204 229.834 34.6398C229.961 34.3444 230.025 34.0343 230.025 33.7094C230.025 33.3845 229.961 33.0743 229.834 32.7789C229.708 32.4983 229.539 32.2473 229.327 32.0257C229.102 31.819 228.848 31.6491 228.567 31.5162C228.271 31.3981 227.961 31.339 227.637 31.339C227.313 31.339 227.003 31.3981 226.707 31.5162ZM227.13 34.9278C226.989 34.8539 226.883 34.7579 226.813 34.6398C226.742 34.5216 226.693 34.3813 226.665 34.2189C226.636 34.0564 226.622 33.8866 226.622 33.7094C226.622 33.5321 226.636 33.3623 226.665 33.1998C226.693 33.0374 226.742 32.8971 226.813 32.7789C226.883 32.6608 226.989 32.5648 227.13 32.491C227.256 32.4171 227.425 32.3802 227.637 32.3802C227.848 32.3802 228.017 32.4171 228.144 32.491C228.285 32.5648 228.39 32.6608 228.461 32.7789C228.531 32.8971 228.581 33.0374 228.609 33.1998C228.637 33.3623 228.651 33.5321 228.651 33.7094C228.651 33.8866 228.637 34.0564 228.609 34.2189C228.581 34.3813 228.531 34.5216 228.461 34.6398C228.39 34.7579 228.285 34.8539 228.144 34.9278C228.017 35.0016 227.848 35.0385 227.637 35.0385C227.425 35.0385 227.256 35.0016 227.13 34.9278ZM232.159 32.9562C232.046 32.9119 231.962 32.8749 231.905 32.8454C231.849 32.8159 231.807 32.7863 231.779 32.7568C231.765 32.7273 231.757 32.6903 231.757 32.646C231.757 32.5426 231.807 32.454 231.905 32.3802C231.99 32.2916 232.152 32.2473 232.391 32.2473C232.448 32.2473 232.511 32.2547 232.582 32.2694C232.652 32.2694 232.715 32.2768 232.772 32.2916V31.3612C232.701 31.3464 232.631 31.339 232.561 31.339C232.476 31.339 232.391 31.339 232.307 31.339C232.025 31.339 231.758 31.3685 231.504 31.4276C231.264 31.5015 231.06 31.6048 230.891 31.7378C230.708 31.8559 230.567 32.0036 230.468 32.1808C230.356 32.3433 230.292 32.5279 230.278 32.7346C230.264 32.9562 230.292 33.1408 230.363 33.2885C230.433 33.4361 230.546 33.5543 230.701 33.6429C230.842 33.7463 231.025 33.8275 231.25 33.8866C231.462 33.9457 231.708 34.0047 231.99 34.0638C232.215 34.1229 232.384 34.182 232.497 34.241C232.61 34.2853 232.687 34.337 232.73 34.3961C232.772 34.4404 232.793 34.4847 232.793 34.529V34.6398C232.793 34.6693 232.786 34.7062 232.772 34.7505C232.758 34.8096 232.73 34.8613 232.687 34.9056C232.631 34.9499 232.568 34.9868 232.497 35.0164C232.413 35.0459 232.3 35.0533 232.159 35.0385C231.877 35.0385 231.588 34.9942 231.293 34.9056C230.997 34.817 230.715 34.6989 230.447 34.5512V35.681C230.715 35.8139 231.004 35.9173 231.314 35.9911C231.624 36.0502 231.905 36.0797 232.159 36.0797C232.469 36.0797 232.751 36.0354 233.004 35.9468C233.258 35.873 233.476 35.7622 233.659 35.6145C233.843 35.4668 233.983 35.297 234.082 35.105C234.195 34.913 234.251 34.7136 234.251 34.5069C234.251 34.3001 234.216 34.1229 234.145 33.9752C234.061 33.8127 233.948 33.6798 233.807 33.5764C233.681 33.4583 233.511 33.3549 233.3 33.2663C233.103 33.1925 232.877 33.126 232.624 33.0669C232.427 33.0226 232.272 32.9857 232.159 32.9562ZM241.499 35.9911V34.817H238.478V33.5764H240.887V32.3802H238.478V31.2725L241.436 31.2504V30.0763L237.125 30.0984V35.9911H241.499Z" fill="#004A8D"/>
<path fill-rule="evenodd" clip-rule="evenodd" d="M246.846 31.339C247.226 31.339 247.557 31.3981 247.839 31.5163C248.121 31.6344 248.353 31.7895 248.536 31.9815C248.72 32.1882 248.86 32.4245 248.959 32.6904C249.044 32.9562 249.086 33.2442 249.086 33.5543V35.9911H247.691V33.4657C247.691 33.3476 247.677 33.2294 247.649 33.1113C247.621 32.9931 247.571 32.8897 247.501 32.8011C247.445 32.6978 247.36 32.6165 247.247 32.5575C247.135 32.4984 247.001 32.4688 246.846 32.4688C246.677 32.4688 246.543 32.4984 246.444 32.5575C246.332 32.6165 246.247 32.6978 246.191 32.8011C246.12 32.8897 246.071 32.9931 246.043 33.1113C246.015 33.2294 246.001 33.3476 246.001 33.4657V35.9911H244.585V33.4657C244.585 33.3476 244.571 33.2294 244.542 33.1113C244.514 32.9931 244.472 32.8897 244.416 32.8011C244.345 32.6978 244.254 32.6165 244.141 32.5575C244.042 32.4984 243.909 32.4688 243.739 32.4688C243.584 32.4688 243.451 32.4984 243.338 32.5575C243.239 32.6165 243.155 32.6978 243.084 32.8011C243.028 32.8897 242.986 32.9931 242.958 33.1113C242.929 33.2294 242.915 33.3476 242.915 33.4657V35.9911H241.499V33.5543C241.499 33.2442 241.542 32.9562 241.626 32.6904C241.725 32.4245 241.866 32.1882 242.049 31.9815C242.232 31.7895 242.464 31.6344 242.746 31.5163C243.028 31.3981 243.359 31.339 243.739 31.339C244.078 31.339 244.373 31.3834 244.627 31.472C244.881 31.5606 245.106 31.6861 245.303 31.8486C245.486 31.6861 245.705 31.5606 245.958 31.472C246.212 31.3834 246.508 31.339 246.846 31.339ZM252.087 31.3169C252.368 31.3169 252.636 31.376 252.89 31.4941C253.143 31.6123 253.369 31.7747 253.566 31.9815C253.749 32.1882 253.897 32.4319 254.01 32.7125C254.122 32.9784 254.179 33.2663 254.179 33.5765C254.179 33.9014 254.122 34.1968 254.01 34.4626C253.897 34.7432 253.749 34.9795 253.566 35.1715C253.369 35.3783 253.143 35.5407 252.89 35.6589C252.636 35.777 252.368 35.8361 252.087 35.8361C251.65 35.8361 251.263 35.7179 250.924 35.4816V37.3425H249.551V31.4277H250.924V31.6935C251.093 31.5753 251.277 31.4867 251.474 31.4277C251.671 31.3538 251.875 31.3169 252.087 31.3169ZM251.897 34.8392C252.094 34.8392 252.256 34.8097 252.383 34.7506C252.509 34.6767 252.608 34.5881 252.678 34.4848C252.749 34.3666 252.798 34.2337 252.826 34.086C252.855 33.9235 252.869 33.7537 252.869 33.5765C252.869 33.414 252.855 33.2516 252.826 33.0891C252.798 32.9414 252.749 32.8085 252.678 32.6904C252.608 32.587 252.509 32.4984 252.383 32.4245C252.256 32.3507 252.094 32.3138 251.897 32.3138C251.699 32.3138 251.537 32.3507 251.41 32.4245C251.284 32.4984 251.185 32.587 251.115 32.6904C251.044 32.8085 250.995 32.9414 250.967 33.0891C250.939 33.2516 250.924 33.414 250.924 33.5765C250.924 33.7537 250.939 33.9235 250.967 34.086C250.995 34.2337 251.044 34.3666 251.115 34.4848C251.185 34.5881 251.284 34.6767 251.41 34.7506C251.537 34.8097 251.699 34.8392 251.897 34.8392ZM257.201 32.3581C257.046 32.3581 256.898 32.3655 256.757 32.3802C256.616 32.4098 256.496 32.4467 256.398 32.491C256.327 32.5353 256.257 32.5796 256.186 32.6239C256.13 32.6535 256.081 32.7051 256.038 32.779C255.996 32.8381 255.968 32.9119 255.954 33.0005C255.926 33.1039 255.912 33.222 255.912 33.355V35.9911H254.496V33.2663C254.496 33.0005 254.552 32.7421 254.665 32.491C254.778 32.2547 254.932 32.0553 255.13 31.8929C255.327 31.7156 255.566 31.5753 255.848 31.472C256.144 31.3834 256.475 31.339 256.841 31.339H256.947C256.975 31.339 257.011 31.339 257.053 31.339C257.109 31.339 257.158 31.339 257.201 31.339V32.3581Z" fill="#004A8D"/>
<path fill-rule="evenodd" clip-rule="evenodd" d="M260.54 35.9468C260.286 36.0059 260.075 36.0428 259.906 36.0576C259.751 36.0724 259.617 36.0797 259.504 36.0797C259.152 36.0797 258.828 36.028 258.532 35.9247C258.25 35.8065 258.004 35.6441 257.792 35.4373C257.581 35.2305 257.419 34.9795 257.306 34.6841C257.194 34.4035 257.137 34.086 257.137 33.7315C257.137 33.4066 257.201 33.1039 257.327 32.8233C257.44 32.5279 257.602 32.2768 257.814 32.0701C258.011 31.8485 258.257 31.6787 258.553 31.5606C258.849 31.4276 259.173 31.3612 259.525 31.3612C259.934 31.3612 260.279 31.4276 260.561 31.5606C260.857 31.7082 261.096 31.8929 261.279 32.1144C261.462 32.3507 261.603 32.6165 261.702 32.9119C261.786 33.2073 261.829 33.51 261.829 33.8201V33.8423C261.829 33.9014 261.829 33.9531 261.829 33.9974C261.829 34.0417 261.822 34.0934 261.808 34.1524H258.448C258.518 34.4478 258.652 34.6693 258.849 34.817C259.06 34.9795 259.307 35.0681 259.589 35.0829C259.73 35.0976 259.863 35.0976 259.99 35.0829C260.117 35.0533 260.3 35.009 260.54 34.9499V35.9468ZM259.525 32.4024C259.229 32.4024 258.99 32.491 258.807 32.6682C258.624 32.8307 258.504 33.0596 258.448 33.3549H260.582C260.54 33.0743 260.434 32.8454 260.265 32.6682C260.082 32.491 259.835 32.4024 259.525 32.4024ZM264.365 33.067C264.618 33.126 264.844 33.1925 265.041 33.2663C265.252 33.3549 265.421 33.4583 265.548 33.5765C265.689 33.6798 265.802 33.8128 265.886 33.9752C265.956 34.1229 265.992 34.3001 265.992 34.5069C265.992 34.7136 265.935 34.913 265.823 35.105C265.724 35.2822 265.583 35.4447 265.4 35.5924C265.217 35.7401 264.999 35.8582 264.745 35.9468C264.491 36.0354 264.21 36.0797 263.9 36.0797C263.646 36.0797 263.364 36.0428 263.054 35.969C262.744 35.9099 262.456 35.8139 262.188 35.681V34.5512C262.456 34.6989 262.737 34.817 263.033 34.9056C263.329 34.9795 263.618 35.0238 263.9 35.0386C264.041 35.0533 264.153 35.0459 264.238 35.0164C264.308 34.9869 264.372 34.9499 264.428 34.9056C264.47 34.8613 264.498 34.8096 264.512 34.7506C264.527 34.7063 264.534 34.6693 264.534 34.6398V34.529C264.534 34.4847 264.512 34.4404 264.47 34.3961C264.428 34.337 264.35 34.278 264.238 34.2189C264.125 34.1746 263.956 34.1229 263.731 34.0638C263.449 34.0048 263.202 33.9457 262.991 33.8866C262.766 33.8128 262.582 33.7315 262.442 33.6429C262.287 33.5395 262.174 33.4214 262.103 33.2885C262.033 33.1408 262.005 32.9562 262.019 32.7347C262.033 32.5279 262.096 32.3359 262.209 32.1587C262.308 31.9962 262.449 31.8485 262.632 31.7156C262.801 31.5975 263.005 31.5015 263.245 31.4276C263.498 31.3538 263.766 31.3169 264.048 31.3169C264.132 31.3169 264.217 31.3243 264.301 31.339C264.372 31.339 264.442 31.3464 264.512 31.3612V32.2916C264.442 32.2768 264.379 32.2694 264.322 32.2694C264.252 32.2547 264.188 32.2473 264.132 32.2473C263.893 32.2473 263.731 32.2916 263.646 32.3802C263.547 32.4541 263.498 32.5427 263.498 32.646C263.498 32.6756 263.505 32.7125 263.519 32.7568C263.547 32.7863 263.59 32.8159 263.646 32.8454C263.702 32.875 263.787 32.9119 263.9 32.9562C264.012 32.9857 264.167 33.0226 264.365 33.067ZM268.506 31.3612C269.267 31.3612 269.824 31.5384 270.176 31.8929C270.528 32.2325 270.704 32.7125 270.704 33.3328V35.9911H269.352V35.4816C269.169 35.6736 268.957 35.8213 268.718 35.9247C268.478 36.028 268.189 36.0797 267.851 36.0797C267.626 36.0797 267.408 36.0502 267.196 35.9911C266.999 35.9173 266.823 35.8213 266.668 35.7031C266.513 35.585 266.393 35.4447 266.309 35.2822C266.224 35.105 266.182 34.9056 266.182 34.6841V34.662C266.182 34.4109 266.224 34.1967 266.309 34.0195C266.407 33.8275 266.548 33.6725 266.731 33.5543C266.9 33.4362 267.105 33.3476 267.344 33.2885C267.598 33.2294 267.865 33.1999 268.147 33.1999C268.401 33.1999 268.619 33.222 268.802 33.2663C269 33.2959 269.183 33.3402 269.352 33.3992V33.3106C269.352 32.7642 269 32.491 268.295 32.491C267.999 32.491 267.739 32.5131 267.513 32.5574V31.4498C267.654 31.4203 267.809 31.3981 267.978 31.3833C268.133 31.3686 268.309 31.3612 268.506 31.3612ZM269.373 34.1524C269.246 34.0934 269.112 34.0491 268.971 34.0195C268.816 33.99 268.654 33.9752 268.485 33.9752C268.175 33.9752 267.936 34.0343 267.767 34.1524C267.598 34.2558 267.513 34.4109 267.513 34.6177C267.513 34.7949 267.584 34.9352 267.725 35.0386C267.865 35.1272 268.049 35.1715 268.274 35.1715C268.598 35.1715 268.866 35.0976 269.077 34.9499C269.274 34.8023 269.373 34.6103 269.373 34.374V34.1524ZM273.895 32.3581C273.726 32.3581 273.571 32.3728 273.43 32.4024C273.289 32.4319 273.17 32.4688 273.071 32.5131C273.001 32.5427 272.937 32.5796 272.881 32.6239C272.81 32.6682 272.754 32.7199 272.712 32.779C272.684 32.838 272.655 32.9119 272.627 33.0005C272.599 33.1039 272.585 33.222 272.585 33.3549V35.9911H271.19V33.2663C271.176 33.0005 271.225 32.7494 271.338 32.5131C271.451 32.2768 271.606 32.0701 271.803 31.8929C272 31.7156 272.247 31.5753 272.543 31.4719C272.824 31.3833 273.149 31.339 273.515 31.339H273.62C273.649 31.339 273.691 31.339 273.747 31.339C273.79 31.339 273.839 31.3464 273.895 31.3612V32.3581ZM274.128 31.4941H275.522V35.9911H274.128V31.4941ZM275.522 30.8074H274.128V29.8105H275.522V30.8074ZM278.185 31.3833C278.946 31.3833 279.502 31.5532 279.854 31.8929C280.207 32.2473 280.383 32.7273 280.383 33.3328V35.9911H279.03V35.5038C278.861 35.681 278.657 35.8213 278.417 35.9247C278.178 36.028 277.889 36.0797 277.551 36.0797C277.312 36.0797 277.093 36.0502 276.896 35.9911C276.699 35.9321 276.523 35.8434 276.368 35.7253C276.213 35.6071 276.086 35.4595 275.987 35.2822C275.903 35.105 275.861 34.9056 275.861 34.6841V34.662C275.861 34.4257 275.91 34.2115 276.008 34.0195C276.107 33.8423 276.241 33.6946 276.41 33.5765C276.593 33.4583 276.804 33.3697 277.044 33.3106C277.283 33.2516 277.551 33.222 277.847 33.222C278.101 33.222 278.319 33.2368 278.502 33.2663C278.685 33.2959 278.868 33.3402 279.051 33.3992V33.3328C279.051 32.7716 278.699 32.491 277.995 32.491C277.685 32.491 277.424 32.5205 277.213 32.5796V31.4498C277.354 31.435 277.502 31.4203 277.657 31.4055C277.826 31.3907 278.002 31.3833 278.185 31.3833ZM279.073 34.1524C278.946 34.1081 278.805 34.0712 278.65 34.0417C278.509 34.0121 278.354 33.9974 278.185 33.9974C277.875 33.9974 277.636 34.0491 277.467 34.1524C277.297 34.2558 277.213 34.4109 277.213 34.6177V34.6398C277.213 34.8023 277.283 34.9352 277.424 35.0386C277.565 35.1272 277.748 35.1715 277.974 35.1715C278.298 35.1715 278.558 35.105 278.756 34.9721C278.967 34.8244 279.073 34.6324 279.073 34.3961V34.1524ZM280.89 31.4719H282.285V35.969H280.89V31.4719ZM282.285 30.7852H280.89V29.7883H282.285V30.7852ZM284.99 33.067C285.243 33.1113 285.469 33.1777 285.666 33.2663C285.863 33.3549 286.032 33.4509 286.173 33.5543C286.314 33.6725 286.42 33.8054 286.49 33.9531C286.56 34.1155 286.596 34.3001 286.596 34.5069C286.596 34.6989 286.546 34.8909 286.448 35.0829C286.349 35.2749 286.208 35.4447 286.025 35.5924C285.828 35.7401 285.602 35.8582 285.349 35.9468C285.095 36.0354 284.814 36.0797 284.504 36.0797C284.25 36.0797 283.968 36.0428 283.658 35.969C283.348 35.8951 283.067 35.7991 282.813 35.681V34.5512C283.067 34.6989 283.341 34.8096 283.637 34.8835C283.947 34.9721 284.236 35.0238 284.504 35.0386C284.644 35.0386 284.757 35.0238 284.842 34.9942C284.926 34.9647 284.99 34.9278 285.032 34.8835C285.074 34.8392 285.102 34.7949 285.116 34.7506C285.145 34.7063 285.159 34.662 285.159 34.6177V34.529C285.159 34.4847 285.131 34.433 285.074 34.374C285.032 34.3297 284.954 34.278 284.842 34.2189C284.729 34.1598 284.56 34.1081 284.335 34.0638C284.053 34.0048 283.806 33.9457 283.595 33.8866C283.369 33.8128 283.186 33.7315 283.045 33.6429C282.905 33.5395 282.799 33.414 282.728 33.2663C282.644 33.1334 282.616 32.9488 282.644 32.7125C282.658 32.5057 282.714 32.3211 282.813 32.1587C282.912 31.9962 283.052 31.8485 283.236 31.7156C283.405 31.5975 283.616 31.5015 283.87 31.4276C284.109 31.3538 284.377 31.3169 284.673 31.3169C284.743 31.3169 284.821 31.3243 284.905 31.339C284.976 31.339 285.053 31.3464 285.138 31.3612V32.2694C285.067 32.2694 284.997 32.2621 284.926 32.2473C284.856 32.2473 284.792 32.2473 284.736 32.2473C284.497 32.2473 284.335 32.2842 284.25 32.3581C284.165 32.4467 284.123 32.5353 284.123 32.6239C284.123 32.6682 284.13 32.7051 284.144 32.7347C284.158 32.7642 284.194 32.8011 284.25 32.8454C284.306 32.875 284.391 32.9045 284.504 32.934C284.616 32.9783 284.778 33.0226 284.99 33.067ZM106.147 35.969C105.64 36.1019 105.344 36.124 105.133 36.124C103.738 36.124 102.808 35.1493 102.808 33.798C102.808 32.5131 103.759 31.4498 105.133 31.4498C106.76 31.4498 107.415 32.6239 107.415 33.8866V33.9088C107.415 34.0195 107.415 34.1081 107.394 34.2189H104.076C104.224 34.7727 104.668 35.105 105.218 35.1272C105.492 35.1493 105.682 35.1272 106.147 34.9942V35.969ZM104.076 33.4214H106.211C106.126 32.8676 105.746 32.491 105.154 32.491C104.584 32.491 104.203 32.8454 104.076 33.4214Z" fill="#004A8D"/>
<path fill-rule="evenodd" clip-rule="evenodd" d="M123.624 33.6429V36.0355H122.25V33.5543C122.229 33.0891 122.06 32.5575 121.426 32.5575C120.792 32.5575 120.623 33.0891 120.602 33.5543V36.0355H119.228V33.5543C119.186 33.0891 119.017 32.5575 118.383 32.5575C117.749 32.5575 117.601 33.0891 117.559 33.5543V36.0355H116.185V33.6429C116.185 32.4245 116.883 31.472 118.383 31.472C119.038 31.472 119.545 31.6492 119.904 31.9593C120.264 31.6492 120.771 31.472 121.426 31.472C122.926 31.472 123.624 32.4245 123.624 33.6429ZM99.8499 31.1397V32.3359H102.365V33.5543H99.8499V36.0133H98.4763V29.9213H102.978V31.1397H99.8499ZM135.394 31.5606H136.789V36.0133H135.394V31.5606Z" fill="#004A8D"/>
<path fill-rule="evenodd" clip-rule="evenodd" d="M135.416 30.896H136.789V29.9213H135.416V30.896ZM110.944 35.105C110.846 35.1198 110.747 35.1272 110.649 35.1272C109.782 35.1272 109.085 34.5291 109.085 33.7759C109.085 33.0227 109.782 32.4245 110.649 32.4245C110.747 32.4245 110.846 32.4319 110.944 32.4467V31.4941C110.761 31.4646 110.564 31.4498 110.353 31.4498C108.852 31.4498 107.732 32.4688 107.732 33.798C107.732 34.7284 108.282 35.4373 108.958 35.7918C109.402 36.0355 109.909 36.1241 110.31 36.1241C110.543 36.1241 110.754 36.1019 110.944 36.0798V35.105Z" fill="#004A8D"/>
<path fill-rule="evenodd" clip-rule="evenodd" d="M115.784 33.7758C115.784 35.0606 114.727 36.124 113.438 36.124C112.149 36.124 111.092 35.0606 111.092 33.7758C111.092 32.4909 112.149 31.4497 113.438 31.4497C114.727 31.4497 115.784 32.4909 115.784 33.7758ZM114.431 33.7758C114.431 33.0669 114.262 32.4909 113.438 32.4909C112.614 32.4909 112.424 33.0669 112.424 33.7758C112.424 34.5068 112.614 35.0828 113.438 35.0828C114.262 35.0828 114.431 34.5068 114.431 33.7758ZM134.803 36.0797C134.612 36.124 134.401 36.1461 134.169 36.1461C133.767 36.124 133.26 36.0575 132.816 35.8138C132.14 35.4372 131.591 34.7505 131.591 33.7979C131.591 32.4687 132.711 31.4719 134.211 31.4719C134.422 31.4719 134.62 31.4866 134.803 31.5162V32.4687C134.704 32.454 134.605 32.4466 134.507 32.4466C133.64 32.4466 132.943 33.0447 132.943 33.7979C132.943 34.5511 133.64 35.1492 134.507 35.1492C134.605 35.1492 134.704 35.1418 134.803 35.1271V36.0797ZM141.84 33.7758C141.84 35.0606 140.783 36.1018 139.494 36.1018C138.205 36.1018 137.148 35.0606 137.148 33.7758C137.148 32.4909 138.205 31.4497 139.494 31.4497C140.783 31.4497 141.84 32.4909 141.84 33.7758ZM140.487 33.7758C140.487 33.0669 140.318 32.4687 139.494 32.4687C138.67 32.4687 138.48 33.0669 138.48 33.7758C138.48 34.4846 138.67 35.0828 139.494 35.0828C140.318 35.0828 140.487 34.4846 140.487 33.7758Z" fill="#004A8D"/>
<path fill-rule="evenodd" clip-rule="evenodd" d="M131.654 32.4246C131.316 32.4246 131.041 32.491 130.851 32.5797C130.534 32.7126 130.365 32.8676 130.365 33.4215V36.0134H128.97V33.3329C128.97 32.2474 129.837 31.4056 131.274 31.4056C131.443 31.4056 131.654 31.4277 131.654 31.4277V32.4246ZM127.301 35.9912C126.794 36.1241 126.498 36.1241 126.286 36.1241C124.892 36.1241 123.962 35.1715 123.962 33.8202C123.962 32.5354 124.913 31.472 126.307 31.472C127.914 31.472 128.569 32.6461 128.569 33.9088V33.931C128.569 34.0417 128.569 34.1082 128.548 34.2411H125.251C125.378 34.7949 125.821 35.1272 126.371 35.1494C126.646 35.1715 126.836 35.1494 127.301 35.0165V35.9912ZM125.251 33.4436H127.364C127.28 32.8898 126.899 32.491 126.307 32.491C125.737 32.491 125.357 32.8676 125.251 33.4436ZM125.695 30.9182L126.667 29.3896L127.787 29.877L126.688 30.9182H125.695Z" fill="#004A8D"/>
<path d="M156.104 22.1234H149.849C148.475 22.1234 147.081 22.8988 146.425 23.3861C143.298 25.7343 141.755 30.475 141.755 30.475C142.199 29.6775 145.39 23.5412 149.722 23.5412H154.287C154.287 23.5412 154.287 24.3387 153.885 24.8925C156.379 24.0064 156.104 22.1234 156.104 22.1234Z" fill="#C89633"/>
<path d="M150.631 25.3577C150.631 25.5127 150.588 25.9558 150.398 26.3545H150.377C152.427 26.1773 153.42 25.5349 153.885 24.8925C153.103 25.1804 152.047 25.3577 150.631 25.3577Z" fill="#C89633"/>
<path d="M149.151 26.4211C149.151 26.4211 148.708 26.4211 147.905 26.3989C144.608 26.3103 143.065 28.8136 142.305 30.032C143.065 29.2123 144.545 27.6616 147.228 27.7281C149.321 27.7502 150.081 27.0635 150.398 26.3546C150.018 26.3989 149.616 26.4432 149.151 26.4211Z" fill="#004A8D"/>
<path fill-rule="evenodd" clip-rule="evenodd" d="M151.434 30.8073H154.709V29.8547H150.293V35.9468H151.434V33.3327H154.075V32.3802H151.434V30.8073ZM145.876 29.8547H144.735V35.9468H145.876H146.024C147.862 35.9468 149.722 35.0163 149.722 32.9783C149.722 30.6744 147.736 29.8547 146.024 29.8547H145.876ZM146.024 30.6965C147.482 30.6965 148.518 31.6491 148.518 32.9783C148.518 33.5764 148.243 34.1081 147.778 34.5068C147.313 34.8834 146.679 35.105 146.024 35.105H145.876V34.9499V30.6965H146.024Z" fill="#C89633"/>
</g>
</svg>
